<svg xmlns="http://www.w3.org/2000/svg" width="40" height="40" viewBox="0 0 500 500" version="1.1"><path d="M 76 123.935 C 70.229 125.697, 65 129.232, 59.702 134.955 C 52.487 142.748, 49.255 151.726, 51.018 159.077 C 51.938 162.909, 66.146 188.579, 87.792 225.517 C 94.482 236.933, 96.441 248.101, 93.877 260.201 C 92.524 266.581, 91.020 269.659, 81.020 286.500 C 64.697 313.990, 52.141 336.762, 51.028 340.897 C 47.147 355.308, 65.919 376.997, 82.275 376.999 C 87.703 377, 92.857 374.641, 114.157 362.402 C 126.381 355.378, 155.980 338.025, 156.882 337.354 C 157.092 337.197, 154.881 334.466, 151.969 331.285 C 149.057 328.103, 145.189 322.350, 143.374 318.500 C 139.745 310.804, 137.625 303, 139.163 303 C 139.686 303, 151.226 309.590, 164.807 317.643 C 209.663 344.244, 213.982 346.754, 235.500 358.724 C 264.864 375.060, 267.933 376.509, 273.013 376.432 C 281.648 376.302, 292.844 369.447, 298.975 360.536 C 302.720 355.093, 305.305 346.145, 304.450 341.586 C 303.713 337.654, 294.688 321.100, 275.754 288.944 C 261.431 264.619, 259.392 259.018, 260.303 246.500 C 260.984 237.143, 263.018 232.219, 273.522 214.500 C 291.806 183.656, 302.777 163.867, 303.984 159.557 C 305.081 155.640, 304.975 154.278, 303.097 148.094 C 299.247 135.417, 286.376 124.389, 274.138 123.279 C 269.103 122.822, 267.645 123.149, 261.959 126.011 C 254.832 129.597, 228.849 144.473, 211.075 155.142 C 204.791 158.914, 199.278 162, 198.825 162 C 197.272 162, 198.006 163.186, 203.059 168.840 C 208.842 175.310, 214.656 186.437, 215.639 192.916 C 216.227 196.796, 216.104 197.254, 214.622 196.685 C 213.037 196.077, 197.809 187.134, 155.500 161.965 C 124.756 143.676, 99.160 128.991, 92.696 125.933 C 86.481 122.993, 81.169 122.357, 76 123.935 M 386.609 211.823 C 385.630 213.407, 379.444 229.386, 372.796 247.500 C 365.190 268.224, 364.120 274.259, 367.405 277.893 C 370.052 280.821, 374.581 280.574, 381.410 277.129 C 387.102 274.258, 387.102 274.258, 386.463 277.170 C 385.786 280.249, 387.255 283, 389.576 283 C 390.307 283, 391.688 281.352, 392.644 279.339 C 394.381 275.677, 394.381 275.677, 395.441 278.624 C 396.888 282.650, 399.047 285.442, 401.872 286.942 C 403.933 288.036, 404.519 287.925, 406.347 286.098 C 408.450 283.995, 408.450 283.995, 404.725 280.925 C 400.247 277.234, 400.004 274.701, 403.906 272.397 C 408.052 269.947, 411.427 263.666, 410.014 261.026 C 408.825 258.805, 405.089 258.347, 401.934 260.035 C 400.870 260.605, 400 260.742, 400 260.342 C 400 259.941, 403.452 251.997, 407.670 242.688 C 413.589 229.629, 415.106 225.391, 414.313 224.132 C 411.339 219.408, 408.926 223.267, 395.953 253.500 C 390.374 266.500, 390.374 266.500, 382.937 270.199 C 372.555 275.363, 371 275.707, 371 272.839 C 371 270.109, 379.197 246.727, 386.544 228.500 C 391.824 215.401, 392.109 213.023, 388.560 211.661 C 387.737 211.346, 386.859 211.418, 386.609 211.823 M 450.500 228 C 448.185 232.598, 446.379 235.006, 445.237 235.017 C 441.394 235.056, 424.116 237.023, 418.250 238.090 C 411.942 239.237, 410.601 240.594, 413.444 242.954 C 414.571 243.889, 417.559 243.806, 427.036 242.576 C 442.919 240.515, 444.373 240.530, 443.713 242.750 C 441.843 249.035, 435.040 265.299, 433.629 266.858 C 431.581 269.120, 419.209 275.542, 418.419 274.752 C 418.112 274.445, 418.847 271.901, 420.053 269.098 C 421.832 264.962, 422.011 263.718, 421 262.501 C 418.850 259.910, 417.117 260.837, 414.517 265.967 C 408.025 278.779, 415.036 285.287, 426.908 277.468 C 429.857 275.526, 432.465 274.132, 432.704 274.371 C 432.942 274.609, 432.657 277.406, 432.069 280.586 C 430.631 288.362, 430.702 299.302, 432.200 300.800 C 434.876 303.476, 435.705 301.940, 436.329 293.152 C 437.135 281.785, 441.665 264.333, 447.269 251 C 451.682 240.500, 451.682 240.500, 462.591 240.810 C 472.246 241.085, 480.898 242.446, 486.250 244.532 C 487.564 245.044, 488 244.711, 488 243.196 C 488 239.056, 474.344 235.025, 460.261 235.008 C 454.022 235, 454.022 235, 456.687 229.565 C 458.918 225.018, 459.141 223.874, 458.054 222.565 C 455.704 219.734, 454.071 220.909, 450.500 228 M 306.610 226.059 C 297.870 226.548, 290.461 227.206, 290.145 227.522 C 289.829 227.838, 290.062 228.862, 290.663 229.798 C 291.626 231.299, 293.484 231.462, 306.377 231.180 C 316.567 230.956, 321 231.194, 321 231.963 C 321 232.570, 319.896 235.244, 318.547 237.906 C 312.590 249.663, 304 279.757, 304 288.872 C 304 290.914, 304.669 292.288, 306.015 293.008 C 308.464 294.319, 308.299 294.715, 311.023 281 C 313.484 268.609, 319.602 249.713, 323.926 241.146 C 325.617 237.797, 327 234.188, 327 233.125 C 327 231.385, 328.032 231.122, 337.373 230.485 C 347.655 229.785, 362.311 231.027, 367.634 233.051 C 370.855 234.275, 372.307 233.442, 371.049 231.092 C 370.523 230.109, 367.485 228.521, 364.296 227.563 C 357.184 225.426, 330.420 224.728, 306.610 226.059 M 168.228 240.271 C 163.703 244.820, 160 249.230, 160 250.071 C 160 251.700, 169.475 262.023, 174.349 265.706 C 176.965 267.682, 177.542 267.771, 179.885 266.556 C 183.753 264.552, 195 252.466, 195 250.314 C 195 248.417, 179.275 232, 177.457 232 C 176.906 232, 172.753 235.722, 168.228 240.271 M 422.511 249.342 C 420.776 251.991, 421.307 254.520, 423.801 255.477 C 427.402 256.859, 429.495 249.870, 426.034 248.018 C 424.420 247.154, 423.790 247.391, 422.511 249.342 M 332.401 263.198 C 324.710 270.287, 322.873 276.653, 327.314 280.826 C 330.074 283.418, 332.719 283.586, 335.886 281.367 C 342.511 276.727, 344.407 259, 338.278 259 C 337.550 259, 334.906 260.889, 332.401 263.198 M 351.146 262.607 C 346.705 266.408, 343 272.503, 343 276.006 C 343 278.849, 347.363 283, 350.351 283 C 357.347 283, 364.326 265.320, 359.171 260.655 C 356.622 258.348, 355.923 258.518, 351.146 262.607 M 351.589 271.654 C 348.679 275.936, 348.211 277.899, 350.566 275.945 C 352.453 274.379, 355.342 269.009, 354.663 268.329 C 354.396 268.063, 353.013 269.559, 351.589 271.654 M 333.031 271.957 C 331.827 273.647, 331.017 275.552, 331.231 276.192 C 331.444 276.831, 332.655 275.676, 333.923 273.624 C 336.755 269.042, 336.048 267.720, 333.031 271.957" stroke="none" fill="#fcfafa" fill-rule="evenodd"/><path d="M 219 1.597 C 152.720 10.379, 94.841 43.030, 53.579 94.918 C -2.873 165.906, -15.911 263.033, 19.625 347.852 C 43.236 404.208, 89.319 451.641, 145.403 477.314 C 179.080 492.731, 212.597 500, 250 500 C 287.019 500, 320.341 492.850, 353.744 477.740 C 410.278 452.166, 457.029 403.975, 480.864 346.705 C 489.757 325.336, 497.071 297.163, 498.593 278.411 C 498.970 273.755, 499.667 269.706, 500.140 269.414 C 500.613 269.121, 501 259.882, 501 248.882 C 501 237.882, 500.611 229.122, 500.136 229.416 C 499.660 229.710, 498.964 226.164, 498.588 221.537 C 496.470 195.431, 485.069 158.644, 470.844 132.014 C 436.137 67.044, 370.458 18.183, 299.500 4.546 C 275.293 -0.107, 241.265 -1.353, 219 1.597 M 76 123.935 C 70.229 125.697, 65 129.232, 59.702 134.955 C 52.487 142.748, 49.255 151.726, 51.018 159.077 C 51.938 162.909, 66.146 188.579, 87.792 225.517 C 94.482 236.933, 96.441 248.101, 93.877 260.201 C 92.524 266.581, 91.020 269.659, 81.020 286.500 C 64.697 313.990, 52.141 336.762, 51.028 340.897 C 47.147 355.308, 65.919 376.997, 82.275 376.999 C 87.703 377, 92.857 374.641, 114.157 362.402 C 126.381 355.378, 155.980 338.025, 156.882 337.354 C 157.092 337.197, 154.881 334.466, 151.969 331.285 C 149.057 328.103, 145.189 322.350, 143.374 318.500 C 139.745 310.804, 137.625 303, 139.163 303 C 139.686 303, 151.226 309.590, 164.807 317.643 C 209.663 344.244, 213.982 346.754, 235.500 358.724 C 264.864 375.060, 267.933 376.509, 273.013 376.432 C 281.648 376.302, 292.844 369.447, 298.975 360.536 C 302.720 355.093, 305.305 346.145, 304.450 341.586 C 303.713 337.654, 294.688 321.100, 275.754 288.944 C 261.431 264.619, 259.392 259.018, 260.303 246.500 C 260.984 237.143, 263.018 232.219, 273.522 214.500 C 291.806 183.656, 302.777 163.867, 303.984 159.557 C 305.081 155.640, 304.975 154.278, 303.097 148.094 C 299.247 135.417, 286.376 124.389, 274.138 123.279 C 269.103 122.822, 267.645 123.149, 261.959 126.011 C 254.832 129.597, 228.849 144.473, 211.075 155.142 C 204.791 158.914, 199.278 162, 198.825 162 C 197.272 162, 198.006 163.186, 203.059 168.840 C 208.842 175.310, 214.656 186.437, 215.639 192.916 C 216.227 196.796, 216.104 197.254, 214.622 196.685 C 213.037 196.077, 197.809 187.134, 155.500 161.965 C 124.756 143.676, 99.160 128.991, 92.696 125.933 C 86.481 122.993, 81.169 122.357, 76 123.935 M 386.609 211.823 C 385.630 213.407, 379.444 229.386, 372.796 247.500 C 365.190 268.224, 364.120 274.259, 367.405 277.893 C 370.052 280.821, 374.581 280.574, 381.410 277.129 C 387.102 274.258, 387.102 274.258, 386.463 277.170 C 385.786 280.249, 387.255 283, 389.576 283 C 390.307 283, 391.688 281.352, 392.644 279.339 C 394.381 275.677, 394.381 275.677, 395.441 278.624 C 396.888 282.650, 399.047 285.442, 401.872 286.942 C 403.933 288.036, 404.519 287.925, 406.347 286.098 C 408.450 283.995, 408.450 283.995, 404.725 280.925 C 400.247 277.234, 400.004 274.701, 403.906 272.397 C 408.052 269.947, 411.427 263.666, 410.014 261.026 C 408.825 258.805, 405.089 258.347, 401.934 260.035 C 400.870 260.605, 400 260.742, 400 260.342 C 400 259.941, 403.452 251.997, 407.670 242.688 C 413.589 229.629, 415.106 225.391, 414.313 224.132 C 411.339 219.408, 408.926 223.267, 395.953 253.500 C 390.374 266.500, 390.374 266.500, 382.937 270.199 C 372.555 275.363, 371 275.707, 371 272.839 C 371 270.109, 379.197 246.727, 386.544 228.500 C 391.824 215.401, 392.109 213.023, 388.560 211.661 C 387.737 211.346, 386.859 211.418, 386.609 211.823 M 450.500 228 C 448.185 232.598, 446.379 235.006, 445.237 235.017 C 441.394 235.056, 424.116 237.023, 418.250 238.090 C 411.942 239.237, 410.601 240.594, 413.444 242.954 C 414.571 243.889, 417.559 243.806, 427.036 242.576 C 442.919 240.515, 444.373 240.530, 443.713 242.750 C 441.843 249.035, 435.040 265.299, 433.629 266.858 C 431.581 269.120, 419.209 275.542, 418.419 274.752 C 418.112 274.445, 418.847 271.901, 420.053 269.098 C 421.832 264.962, 422.011 263.718, 421 262.501 C 418.850 259.910, 417.117 260.837, 414.517 265.967 C 408.025 278.779, 415.036 285.287, 426.908 277.468 C 429.857 275.526, 432.465 274.132, 432.704 274.371 C 432.942 274.609, 432.657 277.406, 432.069 280.586 C 430.631 288.362, 430.702 299.302, 432.200 300.800 C 434.876 303.476, 435.705 301.940, 436.329 293.152 C 437.135 281.785, 441.665 264.333, 447.269 251 C 451.682 240.500, 451.682 240.500, 462.591 240.810 C 472.246 241.085, 480.898 242.446, 486.250 244.532 C 487.564 245.044, 488 244.711, 488 243.196 C 488 239.056, 474.344 235.025, 460.261 235.008 C 454.022 235, 454.022 235, 456.687 229.565 C 458.918 225.018, 459.141 223.874, 458.054 222.565 C 455.704 219.734, 454.071 220.909, 450.500 228 M 306.610 226.059 C 297.870 226.548, 290.461 227.206, 290.145 227.522 C 289.829 227.838, 290.062 228.862, 290.663 229.798 C 291.626 231.299, 293.484 231.462, 306.377 231.180 C 316.567 230.956, 321 231.194, 321 231.963 C 321 232.570, 319.896 235.244, 318.547 237.906 C 312.590 249.663, 304 279.757, 304 288.872 C 304 290.914, 304.669 292.288, 306.015 293.008 C 308.464 294.319, 308.299 294.715, 311.023 281 C 313.484 268.609, 319.602 249.713, 323.926 241.146 C 325.617 237.797, 327 234.188, 327 233.125 C 327 231.385, 328.032 231.122, 337.373 230.485 C 347.655 229.785, 362.311 231.027, 367.634 233.051 C 370.855 234.275, 372.307 233.442, 371.049 231.092 C 370.523 230.109, 367.485 228.521, 364.296 227.563 C 357.184 225.426, 330.420 224.728, 306.610 226.059 M 0.422 250 C 0.422 261.275, 0.568 265.887, 0.746 260.250 C 0.924 254.613, 0.924 245.387, 0.746 239.750 C 0.568 234.113, 0.422 238.725, 0.422 250 M 168.228 240.271 C 163.703 244.820, 160 249.230, 160 250.071 C 160 251.700, 169.475 262.023, 174.349 265.706 C 176.965 267.682, 177.542 267.771, 179.885 266.556 C 183.753 264.552, 195 252.466, 195 250.314 C 195 248.417, 179.275 232, 177.457 232 C 176.906 232, 172.753 235.722, 168.228 240.271 M 422.511 249.342 C 420.776 251.991, 421.307 254.520, 423.801 255.477 C 427.402 256.859, 429.495 249.870, 426.034 248.018 C 424.420 247.154, 423.790 247.391, 422.511 249.342 M 332.401 263.198 C 324.710 270.287, 322.873 276.653, 327.314 280.826 C 330.074 283.418, 332.719 283.586, 335.886 281.367 C 342.511 276.727, 344.407 259, 338.278 259 C 337.550 259, 334.906 260.889, 332.401 263.198 M 351.146 262.607 C 346.705 266.408, 343 272.503, 343 276.006 C 343 278.849, 347.363 283, 350.351 283 C 357.347 283, 364.326 265.320, 359.171 260.655 C 356.622 258.348, 355.923 258.518, 351.146 262.607 M 351.589 271.654 C 348.679 275.936, 348.211 277.899, 350.566 275.945 C 352.453 274.379, 355.342 269.009, 354.663 268.329 C 354.396 268.063, 353.013 269.559, 351.589 271.654 M 333.031 271.957 C 331.827 273.647, 331.017 275.552, 331.231 276.192 C 331.444 276.831, 332.655 275.676, 333.923 273.624 C 336.755 269.042, 336.048 267.720, 333.031 271.957" stroke="none" fill="#fc7d6e" fill-rule="evenodd"/></svg>