<?xml version="1.0" encoding="UTF-8"?>
<svg xmlns="http://www.w3.org/2000/svg" xmlns:xlink="http://www.w3.org/1999/xlink" width="40px" height="40px" viewBox="0 0 40 40" version="1.1">
<defs>
<filter id="alpha" filterUnits="objectBoundingBox" x="0%" y="0%" width="100%" height="100%">
  <feColorMatrix type="matrix" in="SourceGraphic" values="0 0 0 0 1 0 0 0 0 1 0 0 0 0 1 0 0 0 1 0"/>
</filter>
<mask id="mask0">
  <g filter="url(#alpha)">
<rect x="0" y="0" width="40" height="40" style="fill:rgb(0%,0%,0%);fill-opacity:0.996078;stroke:none;"/>
  </g>
</mask>
<clipPath id="clip1">
  <rect x="0" y="0" width="40" height="40"/>
</clipPath>
<g id="surface5" clip-path="url(#clip1)">
<path style=" stroke:none;fill-rule:evenodd;fill:rgb(99.607843%,44.705882%,49.803922%);fill-opacity:1;" d="M 18.199219 -0.0390625 C 19.054688 -0.0390625 19.90625 -0.0390625 20.761719 -0.0390625 C 17.015625 3.582031 13.28125 7.277344 9.558594 11.039062 C 9.484375 11.078125 9.402344 11.09375 9.320312 11.078125 C 8.601562 10.695312 7.882812 10.308594 7.160156 9.921875 C 5.765625 9.71875 4.765625 10.265625 4.160156 11.558594 C 3.972656 11.980469 3.945312 12.410156 4.078125 12.839844 C 4.515625 13.632812 4.929688 14.433594 5.320312 15.238281 C 3.589844 17.011719 1.84375 18.769531 0.078125 20.519531 C 0.0507812 20.476562 0.0078125 20.449219 -0.0390625 20.441406 C -0.0390625 19.695312 -0.0390625 18.945312 -0.0390625 18.199219 C 0.242188 15.21875 1.148438 12.445312 2.679688 9.878906 C 5.117188 7.5625 7.542969 5.175781 9.960938 2.71875 C 9.941406 2.6875 9.914062 2.675781 9.878906 2.679688 C 12.449219 1.148438 15.222656 0.242188 18.199219 -0.0390625 Z M 18.199219 -0.0390625 "/>
</g>
<mask id="mask1">
  <g filter="url(#alpha)">
<rect x="0" y="0" width="40" height="40" style="fill:rgb(0%,0%,0%);fill-opacity:0.996078;stroke:none;"/>
  </g>
</mask>
<clipPath id="clip2">
  <rect x="0" y="0" width="40" height="40"/>
</clipPath>
<g id="surface8" clip-path="url(#clip2)">
<path style=" stroke:none;fill-rule:evenodd;fill:rgb(99.607843%,45.882353%,47.843137%);fill-opacity:1;" d="M 20.761719 -0.0390625 C 21.078125 -0.0390625 21.398438 -0.0390625 21.71875 -0.0390625 C 22.808594 0.109375 23.902344 0.296875 25 0.519531 C 25.027344 0.667969 25.109375 0.789062 25.238281 0.878906 C 21.148438 4.972656 17.054688 9.066406 12.960938 13.160156 C 12.90625 13.101562 12.839844 13.074219 12.761719 13.078125 C 11.585938 12.457031 10.4375 11.789062 9.320312 11.078125 C 9.402344 11.09375 9.484375 11.078125 9.558594 11.039062 C 13.28125 7.277344 17.015625 3.582031 20.761719 -0.0390625 Z M 20.761719 -0.0390625 "/>
</g>
<mask id="mask2">
  <g filter="url(#alpha)">
<rect x="0" y="0" width="40" height="40" style="fill:rgb(0%,0%,0%);fill-opacity:0.996078;stroke:none;"/>
  </g>
</mask>
<clipPath id="clip3">
  <rect x="0" y="0" width="40" height="40"/>
</clipPath>
<g id="surface11" clip-path="url(#clip3)">
<path style=" stroke:none;fill-rule:evenodd;fill:rgb(99.607843%,47.45098%,45.098039%);fill-opacity:1;" d="M 27.800781 1.558594 C 29.691406 2.316406 31.398438 3.359375 32.921875 4.679688 C 30.101562 7.460938 27.261719 10.285156 24.398438 13.160156 C 24.320312 13.113281 24.253906 13.0625 24.199219 13 C 24.421875 12.386719 24.355469 11.800781 24 11.238281 C 23.34375 10.234375 22.425781 9.769531 21.238281 9.839844 C 20.308594 10.359375 19.375 10.878906 18.441406 11.398438 C 18.3125 11.414062 18.203125 11.375 18.121094 11.28125 C 21.363281 8.050781 24.589844 4.8125 27.800781 1.558594 Z M 27.800781 1.558594 "/>
</g>
<mask id="mask3">
  <g filter="url(#alpha)">
<rect x="0" y="0" width="40" height="40" style="fill:rgb(0%,0%,0%);fill-opacity:0.996078;stroke:none;"/>
  </g>
</mask>
<clipPath id="clip4">
  <rect x="0" y="0" width="40" height="40"/>
</clipPath>
<g id="surface14" clip-path="url(#clip4)">
<path style=" stroke:none;fill-rule:evenodd;fill:rgb(99.607843%,48.627451%,43.921569%);fill-opacity:1;" d="M 32.921875 4.679688 C 33.449219 5.078125 33.929688 5.53125 34.359375 6.039062 C 34.289062 6.128906 34.222656 6.128906 34.160156 6.039062 C 29.734375 10.464844 25.304688 14.894531 20.878906 19.320312 C 20.839844 19.691406 20.828125 20.066406 20.839844 20.441406 C 20.703125 19.765625 20.769531 19.097656 21.039062 18.441406 C 22.15625 16.660156 23.210938 14.84375 24.199219 13 C 24.253906 13.0625 24.320312 13.113281 24.398438 13.160156 C 27.261719 10.285156 30.101562 7.460938 32.921875 4.679688 Z M 32.921875 4.679688 "/>
</g>
<mask id="mask4">
  <g filter="url(#alpha)">
<rect x="0" y="0" width="40" height="40" style="fill:rgb(0%,0%,0%);fill-opacity:0.980392;stroke:none;"/>
  </g>
</mask>
<clipPath id="clip5">
  <rect x="0" y="0" width="40" height="40"/>
</clipPath>
<g id="surface17" clip-path="url(#clip5)">
<path style=" stroke:none;fill-rule:evenodd;fill:rgb(99.607843%,43.921569%,50.980392%);fill-opacity:1;" d="M 9.878906 2.679688 C 9.914062 2.675781 9.941406 2.6875 9.960938 2.71875 C 7.542969 5.175781 5.117188 7.5625 2.679688 9.878906 C 4.414062 6.8125 6.8125 4.414062 9.878906 2.679688 Z M 9.878906 2.679688 "/>
</g>
<mask id="mask5">
  <g filter="url(#alpha)">
<rect x="0" y="0" width="40" height="40" style="fill:rgb(0%,0%,0%);fill-opacity:0.996078;stroke:none;"/>
  </g>
</mask>
<clipPath id="clip6">
  <rect x="0" y="0" width="40" height="40"/>
</clipPath>
<g id="surface20" clip-path="url(#clip6)">
<path style=" stroke:none;fill-rule:evenodd;fill:rgb(99.607843%,50.588235%,40.392157%);fill-opacity:1;" d="M 37.160156 9.71875 C 38.292969 11.515625 39.066406 13.460938 39.480469 15.558594 C 39.390625 15.757812 39.390625 15.929688 39.480469 16.078125 C 38.582031 16.960938 37.703125 17.855469 36.839844 18.761719 C 36.652344 18.773438 36.464844 18.757812 36.28125 18.71875 C 36.433594 18.464844 36.566406 18.199219 36.679688 17.921875 C 36.625 17.703125 36.488281 17.621094 36.28125 17.679688 C 36.09375 18.027344 35.90625 18.375 35.71875 18.71875 C 34.835938 18.792969 33.957031 18.902344 33.078125 19.039062 C 32.863281 19.28125 32.929688 19.429688 33.28125 19.480469 C 34.007812 19.335938 34.742188 19.257812 35.480469 19.238281 C 35.234375 19.867188 35.007812 20.507812 34.800781 21.160156 C 34.410156 21.507812 33.972656 21.773438 33.480469 21.960938 C 33.453125 21.921875 33.425781 21.878906 33.398438 21.839844 C 33.507812 21.601562 33.613281 21.359375 33.71875 21.121094 C 33.648438 20.867188 33.503906 20.800781 33.28125 20.921875 C 32.976562 21.296875 32.871094 21.722656 32.960938 22.199219 C 33.109375 22.402344 33.308594 22.484375 33.558594 22.441406 C 33.207031 22.453125 32.914062 22.601562 32.679688 22.878906 C 32.605469 22.917969 32.523438 22.933594 32.441406 22.921875 C 32.492188 22.839844 32.542969 22.761719 32.601562 22.679688 C 32.355469 22.515625 32.167969 22.300781 32.039062 22.039062 C 32.054688 21.988281 32.066406 21.933594 32.078125 21.878906 C 32.457031 21.675781 32.707031 21.371094 32.839844 20.960938 C 32.617188 20.632812 32.335938 20.59375 32 20.839844 C 32.300781 19.941406 32.675781 19.0625 33.121094 18.199219 C 33.195312 17.863281 33.074219 17.726562 32.761719 17.800781 C 32.195312 18.925781 31.675781 20.074219 31.199219 21.238281 C 30.734375 21.566406 30.226562 21.804688 29.679688 21.960938 C 29.628906 21.710938 29.65625 21.472656 29.761719 21.238281 C 30.226562 19.867188 30.746094 18.523438 31.320312 17.199219 C 31.238281 16.941406 31.078125 16.871094 30.839844 17 C 30.25 18.449219 29.703125 19.914062 29.199219 21.398438 C 29.0625 21.925781 29.25 22.246094 29.761719 22.359375 C 30.148438 22.304688 30.507812 22.171875 30.839844 21.960938 C 30.859375 22.109375 30.875 22.265625 30.878906 22.441406 C 30.9375 22.527344 31.019531 22.578125 31.121094 22.601562 C 31.273438 22.429688 31.40625 22.242188 31.519531 22.039062 C 31.621094 22.527344 31.902344 22.847656 32.359375 23 C 32.367188 23.050781 32.394531 23.089844 32.441406 23.121094 C 26.972656 28.585938 21.507812 34.054688 16.039062 39.519531 C 16.085938 39.550781 16.109375 39.589844 16.121094 39.640625 C 13.773438 39.179688 11.585938 38.324219 9.558594 37.078125 C 9.566406 37 9.539062 36.933594 9.480469 36.878906 C 12.292969 34.066406 15.105469 31.253906 17.921875 28.441406 C 18.035156 28.632812 18.15625 28.632812 18.28125 28.441406 C 19.316406 28.984375 20.355469 29.53125 21.398438 30.078125 C 22.925781 30.046875 23.902344 29.289062 24.320312 27.800781 C 24.375 27.585938 24.375 27.375 24.320312 27.160156 C 23.730469 26.105469 23.160156 25.039062 22.601562 23.960938 C 22.6875 23.886719 22.6875 23.820312 22.601562 23.761719 C 23.066406 23.292969 23.535156 22.828125 24 22.359375 C 24.082031 22.457031 24.175781 22.535156 24.28125 22.601562 C 24.265625 22.839844 24.28125 23.082031 24.320312 23.320312 C 24.429688 23.390625 24.546875 23.417969 24.679688 23.398438 C 24.765625 22.640625 24.914062 21.894531 25.121094 21.160156 C 25.445312 20.273438 25.78125 19.394531 26.121094 18.519531 C 26.90625 18.441406 27.707031 18.414062 28.519531 18.441406 C 28.898438 18.496094 29.273438 18.574219 29.640625 18.679688 C 29.65625 18.546875 29.628906 18.429688 29.558594 18.320312 C 29.277344 18.1875 28.984375 18.097656 28.679688 18.039062 C 28.644531 17.964844 28.589844 17.898438 28.519531 17.839844 C 31.28125 15.078125 34.039062 12.320312 36.800781 9.558594 C 36.894531 9.730469 37.015625 9.785156 37.160156 9.71875 Z M 37.160156 9.71875 "/>
</g>
<mask id="mask6">
  <g filter="url(#alpha)">
<rect x="0" y="0" width="40" height="40" style="fill:rgb(0%,0%,0%);fill-opacity:0.996078;stroke:none;"/>
  </g>
</mask>
<clipPath id="clip7">
  <rect x="0" y="0" width="40" height="40"/>
</clipPath>
<g id="surface23" clip-path="url(#clip7)">
<path style=" stroke:none;fill-rule:evenodd;fill:rgb(99.607843%,45.882353%,47.843137%);fill-opacity:1;" d="M 5.320312 15.238281 C 5.964844 16.257812 6.578125 17.296875 7.160156 18.359375 C 7.167969 18.441406 7.140625 18.507812 7.078125 18.558594 C 7.21875 18.652344 7.257812 18.769531 7.199219 18.921875 C 5.121094 21 3.039062 23.078125 0.960938 25.160156 C 0.90625 25.105469 0.851562 25.054688 0.800781 25 C 0.746094 25.058594 0.679688 25.085938 0.601562 25.078125 C 0.300781 23.96875 0.0859375 22.847656 -0.0390625 21.71875 C -0.0390625 21.292969 -0.0390625 20.867188 -0.0390625 20.441406 C 0.0078125 20.449219 0.0507812 20.476562 0.078125 20.519531 C 1.84375 18.769531 3.589844 17.011719 5.320312 15.238281 Z M 5.320312 15.238281 "/>
</g>
<mask id="mask7">
  <g filter="url(#alpha)">
<rect x="0" y="0" width="40" height="40" style="fill:rgb(0%,0%,0%);fill-opacity:0.996078;stroke:none;"/>
  </g>
</mask>
<clipPath id="clip8">
  <rect x="0" y="0" width="40" height="40"/>
</clipPath>
<g id="surface26" clip-path="url(#clip8)">
<path style=" stroke:none;fill-rule:evenodd;fill:rgb(99.607843%,52.156863%,37.647059%);fill-opacity:1;" d="M 39.480469 15.558594 C 39.699219 16.429688 39.859375 17.308594 39.960938 18.199219 C 39.960938 19.375 39.960938 20.546875 39.960938 21.71875 C 39.796875 23.089844 39.53125 24.449219 39.160156 25.800781 C 39.109375 25.792969 39.070312 25.765625 39.039062 25.71875 C 34.554688 30.167969 30.113281 34.648438 25.71875 39.160156 C 24.402344 39.546875 23.066406 39.816406 21.71875 39.960938 C 20.546875 39.960938 19.375 39.960938 18.199219 39.960938 C 17.917969 39.894531 17.625 39.84375 17.320312 39.800781 C 17.304688 39.636719 17.238281 39.609375 17.121094 39.71875 C 17.078125 39.679688 17.039062 39.640625 17 39.601562 C 17.132812 39.519531 17.265625 39.441406 17.398438 39.359375 C 17.320312 39.332031 17.238281 39.304688 17.160156 39.28125 C 17.292969 39.253906 17.425781 39.226562 17.558594 39.199219 C 17.535156 39.171875 17.507812 39.148438 17.480469 39.121094 C 17.667969 38.988281 17.851562 38.851562 18.039062 38.71875 C 17.960938 38.695312 17.878906 38.667969 17.800781 38.640625 C 17.933594 38.613281 18.066406 38.585938 18.199219 38.558594 C 18.171875 38.535156 18.148438 38.507812 18.121094 38.480469 C 18.304688 38.347656 18.492188 38.214844 18.679688 38.078125 C 18.601562 38.054688 18.519531 38.027344 18.441406 38 C 18.574219 37.972656 18.707031 37.945312 18.839844 37.921875 C 18.8125 37.894531 18.785156 37.867188 18.761719 37.839844 C 18.945312 37.707031 19.132812 37.574219 19.320312 37.441406 C 19.238281 37.414062 19.160156 37.386719 19.078125 37.359375 C 19.214844 37.332031 19.347656 37.304688 19.480469 37.28125 C 19.453125 37.253906 19.425781 37.226562 19.398438 37.199219 C 19.585938 37.066406 19.773438 36.933594 19.960938 36.800781 C 19.878906 36.773438 19.800781 36.746094 19.71875 36.71875 C 19.851562 36.695312 19.988281 36.667969 20.121094 36.640625 C 20.09375 36.613281 20.066406 36.585938 20.039062 36.558594 C 20.226562 36.425781 20.414062 36.292969 20.601562 36.160156 C 20.519531 36.132812 20.441406 36.105469 20.359375 36.078125 C 20.492188 36.054688 20.625 36.027344 20.761719 36 C 20.734375 35.972656 20.707031 35.945312 20.679688 35.921875 C 20.867188 35.785156 21.054688 35.652344 21.238281 35.519531 C 21.160156 35.492188 21.078125 35.464844 21 35.441406 C 21.132812 35.414062 21.265625 35.386719 21.398438 35.359375 C 21.375 35.332031 21.347656 35.304688 21.320312 35.28125 C 21.507812 35.148438 21.695312 35.011719 21.878906 34.878906 C 21.800781 34.851562 21.71875 34.828125 21.640625 34.800781 C 21.773438 34.773438 21.90625 34.746094 22.039062 34.71875 C 22.011719 34.695312 21.988281 34.667969 21.960938 34.640625 C 22.148438 34.507812 22.332031 34.375 22.519531 34.238281 C 22.441406 34.214844 22.359375 34.1875 22.28125 34.160156 C 22.414062 34.132812 22.546875 34.105469 22.679688 34.078125 C 22.652344 34.054688 22.625 34.027344 22.601562 34 C 22.785156 33.867188 22.972656 33.734375 23.160156 33.601562 C 23.078125 33.574219 23 33.546875 22.921875 33.519531 C 23.054688 33.492188 23.1875 33.464844 23.320312 33.441406 C 23.292969 33.414062 23.265625 33.386719 23.238281 33.359375 C 23.425781 33.226562 23.613281 33.09375 23.800781 32.960938 C 23.71875 32.933594 23.640625 32.90625 23.558594 32.878906 C 23.695312 32.851562 23.828125 32.828125 23.960938 32.800781 C 23.933594 32.773438 23.90625 32.746094 23.878906 32.71875 C 24.066406 32.585938 24.253906 32.453125 24.441406 32.320312 C 24.359375 32.292969 24.28125 32.265625 24.199219 32.238281 C 24.332031 32.214844 24.464844 32.1875 24.601562 32.160156 C 24.574219 32.132812 24.546875 32.105469 24.519531 32.078125 C 24.707031 31.945312 24.894531 31.8125 25.078125 31.679688 C 25 31.652344 24.921875 31.625 24.839844 31.601562 C 24.972656 31.574219 25.105469 31.546875 25.238281 31.519531 C 25.214844 31.492188 25.1875 31.464844 25.160156 31.441406 C 25.347656 31.304688 25.535156 31.171875 25.71875 31.039062 C 25.640625 31.011719 25.558594 30.988281 25.480469 30.960938 C 25.613281 30.933594 25.746094 30.90625 25.878906 30.878906 C 25.851562 30.851562 25.828125 30.828125 25.800781 30.800781 C 25.988281 30.667969 26.171875 30.535156 26.359375 30.398438 C 26.28125 30.375 26.199219 30.347656 26.121094 30.320312 C 26.253906 30.292969 26.386719 30.265625 26.519531 30.238281 C 26.492188 30.214844 26.464844 30.1875 26.441406 30.160156 C 26.625 30.027344 26.8125 29.894531 27 29.761719 C 26.921875 29.734375 26.839844 29.707031 26.761719 29.679688 C 26.894531 29.652344 27.027344 29.625 27.160156 29.601562 C 27.132812 29.574219 27.105469 29.546875 27.078125 29.519531 C 27.265625 29.386719 27.453125 29.253906 27.640625 29.121094 C 27.558594 29.09375 27.480469 29.066406 27.398438 29.039062 C 27.535156 29.011719 27.667969 28.988281 27.800781 28.960938 C 27.773438 28.933594 27.746094 28.90625 27.71875 28.878906 C 27.90625 28.746094 28.09375 28.613281 28.28125 28.480469 C 28.199219 28.453125 28.121094 28.425781 28.039062 28.398438 C 28.171875 28.375 28.304688 28.347656 28.441406 28.320312 C 28.414062 28.292969 28.386719 28.265625 28.359375 28.238281 C 28.546875 28.105469 28.734375 27.972656 28.921875 27.839844 C 28.839844 27.8125 28.761719 27.785156 28.679688 27.761719 C 28.8125 27.734375 28.945312 27.707031 29.078125 27.679688 C 29.054688 27.652344 29.027344 27.625 29 27.601562 C 29.1875 27.464844 29.375 27.332031 29.558594 27.199219 C 29.480469 27.171875 29.398438 27.148438 29.320312 27.121094 C 29.453125 27.09375 29.585938 27.066406 29.71875 27.039062 C 29.695312 27.011719 29.667969 26.988281 29.640625 26.960938 C 29.828125 26.828125 30.011719 26.695312 30.199219 26.558594 C 30.121094 26.535156 30.039062 26.507812 29.960938 26.480469 C 30.09375 26.453125 30.226562 26.425781 30.359375 26.398438 C 30.332031 26.375 30.304688 26.347656 30.28125 26.320312 C 30.464844 26.1875 30.652344 26.054688 30.839844 25.921875 C 30.761719 25.894531 30.679688 25.867188 30.601562 25.839844 C 30.734375 25.8125 30.867188 25.785156 31 25.761719 C 30.972656 25.734375 30.945312 25.707031 30.921875 25.679688 C 31.105469 25.546875 31.292969 25.414062 31.480469 25.28125 C 31.398438 25.253906 31.320312 25.226562 31.238281 25.199219 C 31.375 25.171875 31.507812 25.148438 31.640625 25.121094 C 31.613281 25.09375 31.585938 25.066406 31.558594 25.039062 C 31.746094 24.90625 31.933594 24.773438 32.121094 24.640625 C 32.039062 24.613281 31.960938 24.585938 31.878906 24.558594 C 32.011719 24.535156 32.148438 24.507812 32.28125 24.480469 C 32.253906 24.453125 32.226562 24.425781 32.199219 24.398438 C 32.386719 24.265625 32.574219 24.132812 32.761719 24 C 32.679688 23.972656 32.601562 23.945312 32.519531 23.921875 C 32.652344 23.894531 32.785156 23.867188 32.921875 23.839844 C 32.894531 23.8125 32.867188 23.785156 32.839844 23.761719 C 33.027344 23.625 33.214844 23.492188 33.398438 23.359375 C 33.320312 23.332031 33.238281 23.304688 33.160156 23.28125 C 33.292969 23.253906 33.425781 23.226562 33.558594 23.199219 C 33.535156 23.171875 33.507812 23.148438 33.480469 23.121094 C 33.667969 22.988281 33.851562 22.851562 34.039062 22.71875 C 33.960938 22.695312 33.878906 22.667969 33.800781 22.640625 C 33.933594 22.613281 34.066406 22.585938 34.199219 22.558594 C 34.171875 22.535156 34.148438 22.507812 34.121094 22.480469 C 34.199219 22.453125 34.28125 22.425781 34.359375 22.398438 C 34.332031 22.375 34.304688 22.347656 34.28125 22.320312 C 34.355469 22.28125 34.4375 22.269531 34.519531 22.28125 C 34.4375 22.835938 34.421875 23.398438 34.480469 23.960938 C 34.570312 24.082031 34.6875 24.136719 34.839844 24.121094 C 34.863281 22.394531 35.277344 20.769531 36.078125 19.238281 C 37.074219 19.148438 38.046875 19.253906 39 19.558594 C 39.042969 19.339844 38.960938 19.195312 38.761719 19.121094 C 38.144531 18.859375 37.503906 18.742188 36.839844 18.761719 C 37.703125 17.855469 38.582031 16.960938 39.480469 16.078125 C 39.390625 15.929688 39.390625 15.757812 39.480469 15.558594 Z M 39.480469 15.558594 "/>
</g>
<mask id="mask8">
  <g filter="url(#alpha)">
<rect x="0" y="0" width="40" height="40" style="fill:rgb(0%,0%,0%);fill-opacity:0.996078;stroke:none;"/>
  </g>
</mask>
<clipPath id="clip9">
  <rect x="0" y="0" width="40" height="40"/>
</clipPath>
<g id="surface29" clip-path="url(#clip9)">
<path style=" stroke:none;fill-rule:evenodd;fill:rgb(99.607843%,46.666667%,46.666667%);fill-opacity:1;" d="M 7.160156 18.359375 C 7.246094 18.449219 7.3125 18.554688 7.359375 18.679688 C 7.621094 19.53125 7.621094 20.386719 7.359375 21.238281 C 6.878906 22.152344 6.359375 23.03125 5.800781 23.878906 C 5.8125 23.796875 5.796875 23.714844 5.761719 23.640625 C 4.386719 25.011719 3.011719 26.386719 1.640625 27.761719 C 1.664062 27.878906 1.664062 28 1.640625 28.121094 C 1.199219 27.140625 0.851562 26.128906 0.601562 25.078125 C 0.679688 25.085938 0.746094 25.058594 0.800781 25 C 0.851562 25.054688 0.90625 25.105469 0.960938 25.160156 C 3.039062 23.078125 5.121094 21 7.199219 18.921875 C 7.257812 18.769531 7.21875 18.652344 7.078125 18.558594 C 7.140625 18.507812 7.167969 18.441406 7.160156 18.359375 Z M 7.160156 18.359375 "/>
</g>
<mask id="mask9">
  <g filter="url(#alpha)">
<rect x="0" y="0" width="40" height="40" style="fill:rgb(0%,0%,0%);fill-opacity:0.988235;stroke:none;"/>
  </g>
</mask>
<clipPath id="clip10">
  <rect x="0" y="0" width="40" height="40"/>
</clipPath>
<g id="surface32" clip-path="url(#clip10)">
<path style=" stroke:none;fill-rule:evenodd;fill:rgb(99.607843%,47.843137%,45.490196%);fill-opacity:1;" d="M 5.800781 23.878906 C 5.230469 24.914062 4.65625 25.957031 4.078125 27 C 3.949219 27.621094 4.054688 28.207031 4.398438 28.761719 C 5.039062 29.8125 5.960938 30.238281 7.160156 30.039062 C 7.261719 30.035156 7.339844 30.078125 7.398438 30.160156 C 6.476562 31.070312 5.570312 31.988281 4.679688 32.921875 C 3.445312 31.46875 2.433594 29.871094 1.640625 28.121094 C 1.664062 28 1.664062 27.878906 1.640625 27.761719 C 3.011719 26.386719 4.386719 25.011719 5.761719 23.640625 C 5.796875 23.714844 5.8125 23.796875 5.800781 23.878906 Z M 5.800781 23.878906 "/>
</g>
<mask id="mask10">
  <g filter="url(#alpha)">
<rect x="0" y="0" width="40" height="40" style="fill:rgb(0%,0%,0%);fill-opacity:0.996078;stroke:none;"/>
  </g>
</mask>
<clipPath id="clip11">
  <rect x="0" y="0" width="40" height="40"/>
</clipPath>
<g id="surface35" clip-path="url(#clip11)">
<path style=" stroke:none;fill-rule:evenodd;fill:rgb(99.607843%,49.411765%,42.352941%);fill-opacity:1;" d="M 14.199219 26.039062 C 15.601562 26.78125 16.960938 27.582031 18.28125 28.441406 C 18.15625 28.632812 18.035156 28.632812 17.921875 28.441406 C 15.105469 31.253906 12.292969 34.066406 9.480469 36.878906 C 9.539062 36.933594 9.566406 37 9.558594 37.078125 C 8.269531 36.324219 7.097656 35.417969 6.039062 34.359375 C 6.140625 34.304688 6.140625 34.238281 6.039062 34.160156 C 8.75 31.4375 11.46875 28.730469 14.199219 26.039062 Z M 14.199219 26.039062 "/>
</g>
<mask id="mask11">
  <g filter="url(#alpha)">
<rect x="0" y="0" width="40" height="40" style="fill:rgb(0%,0%,0%);fill-opacity:0.980392;stroke:none;"/>
  </g>
</mask>
<clipPath id="clip12">
  <rect x="0" y="0" width="40" height="40"/>
</clipPath>
<g id="surface38" clip-path="url(#clip12)">
<path style=" stroke:none;fill-rule:evenodd;fill:rgb(99.607843%,53.333333%,36.078431%);fill-opacity:1;" d="M 39.160156 25.800781 C 36.914062 32.5 32.433594 36.953125 25.71875 39.160156 C 30.113281 34.648438 34.554688 30.167969 39.039062 25.71875 C 39.070312 25.765625 39.109375 25.792969 39.160156 25.800781 Z M 39.160156 25.800781 "/>
</g>
</defs>
<g id="surface1">
<use xlink:href="#surface5" mask="url(#mask0)"/>
<use xlink:href="#surface8" mask="url(#mask1)"/>
<path style=" stroke:none;fill-rule:evenodd;fill:rgb(99.607843%,46.666667%,46.666667%);fill-opacity:1;" d="M 25 0.519531 C 25.96875 0.789062 26.902344 1.136719 27.800781 1.558594 C 24.589844 4.8125 21.363281 8.050781 18.121094 11.28125 C 18.203125 11.375 18.3125 11.414062 18.441406 11.398438 C 17.550781 11.925781 16.671875 12.472656 15.800781 13.039062 C 16.667969 13.777344 17.144531 14.699219 17.238281 15.800781 C 15.722656 14.921875 14.230469 14.011719 12.761719 13.078125 C 12.839844 13.074219 12.90625 13.101562 12.960938 13.160156 C 17.054688 9.066406 21.148438 4.972656 25.238281 0.878906 C 25.109375 0.789062 25.027344 0.667969 25 0.519531 Z M 25 0.519531 "/>
<use xlink:href="#surface11" mask="url(#mask2)"/>
<use xlink:href="#surface14" mask="url(#mask3)"/>
<path style=" stroke:none;fill-rule:evenodd;fill:rgb(99.607843%,49.411765%,42.352941%);fill-opacity:1;" d="M 34.359375 6.039062 C 35.476562 7.128906 36.410156 8.355469 37.160156 9.71875 C 37.015625 9.785156 36.894531 9.730469 36.800781 9.558594 C 34.039062 12.320312 31.28125 15.078125 28.519531 17.839844 C 28.589844 17.898438 28.644531 17.964844 28.679688 18.039062 C 26.839844 17.964844 25 17.992188 23.160156 18.121094 C 23.144531 18.269531 23.195312 18.390625 23.320312 18.480469 C 24.097656 18.488281 24.871094 18.5 25.640625 18.519531 C 25.011719 19.824219 24.554688 21.183594 24.28125 22.601562 C 24.175781 22.535156 24.082031 22.457031 24 22.359375 C 23.535156 22.828125 23.066406 23.292969 22.601562 23.761719 C 22.6875 23.820312 22.6875 23.886719 22.601562 23.960938 C 22.152344 23.207031 21.6875 22.460938 21.199219 21.71875 C 21.039062 21.300781 20.917969 20.875 20.839844 20.441406 C 20.828125 20.066406 20.839844 19.691406 20.878906 19.320312 C 25.304688 14.894531 29.734375 10.464844 34.160156 6.039062 C 34.222656 6.128906 34.289062 6.128906 34.359375 6.039062 Z M 34.359375 6.039062 "/>
<use xlink:href="#surface17" mask="url(#mask4)"/>
<use xlink:href="#surface20" mask="url(#mask5)"/>
<path style=" stroke:none;fill-rule:evenodd;fill:rgb(100%,99.607843%,99.607843%);fill-opacity:1;" d="M 9.320312 11.078125 C 10.4375 11.789062 11.585938 12.457031 12.761719 13.078125 C 14.230469 14.011719 15.722656 14.921875 17.238281 15.800781 C 17.144531 14.699219 16.667969 13.777344 15.800781 13.039062 C 16.671875 12.472656 17.550781 11.925781 18.441406 11.398438 C 19.375 10.878906 20.308594 10.359375 21.238281 9.839844 C 22.425781 9.769531 23.34375 10.234375 24 11.238281 C 24.355469 11.800781 24.421875 12.386719 24.199219 13 C 23.210938 14.84375 22.15625 16.660156 21.039062 18.441406 C 20.769531 19.097656 20.703125 19.765625 20.839844 20.441406 C 20.917969 20.875 21.039062 21.300781 21.199219 21.71875 C 21.6875 22.460938 22.152344 23.207031 22.601562 23.960938 C 23.160156 25.039062 23.730469 26.105469 24.320312 27.160156 C 24.375 27.375 24.375 27.585938 24.320312 27.800781 C 23.902344 29.289062 22.925781 30.046875 21.398438 30.078125 C 20.355469 29.53125 19.316406 28.984375 18.28125 28.441406 C 16.960938 27.582031 15.601562 26.78125 14.199219 26.039062 C 13.191406 25.429688 12.179688 24.816406 11.160156 24.199219 C 11.214844 25.28125 11.667969 26.171875 12.519531 26.878906 C 10.753906 27.976562 8.96875 29.027344 7.160156 30.039062 C 5.960938 30.238281 5.039062 29.8125 4.398438 28.761719 C 4.054688 28.207031 3.949219 27.621094 4.078125 27 C 4.65625 25.957031 5.230469 24.914062 5.800781 23.878906 C 6.359375 23.03125 6.878906 22.152344 7.359375 21.238281 C 7.621094 20.386719 7.621094 19.53125 7.359375 18.679688 C 7.3125 18.554688 7.246094 18.449219 7.160156 18.359375 C 6.578125 17.296875 5.964844 16.257812 5.320312 15.238281 C 4.929688 14.433594 4.515625 13.632812 4.078125 12.839844 C 3.945312 12.410156 3.972656 11.980469 4.160156 11.558594 C 4.765625 10.265625 5.765625 9.71875 7.160156 9.921875 C 7.882812 10.308594 8.601562 10.695312 9.320312 11.078125 Z M 9.320312 11.078125 "/>
<use xlink:href="#surface23" mask="url(#mask6)"/>
<path style=" stroke:none;fill-rule:evenodd;fill:rgb(100%,97.647059%,97.254902%);fill-opacity:1;" d="M 32.441406 22.921875 C 32.386719 22.921875 32.359375 22.945312 32.359375 23 C 31.902344 22.847656 31.621094 22.527344 31.519531 22.039062 C 31.40625 22.242188 31.273438 22.429688 31.121094 22.601562 C 31.019531 22.578125 30.9375 22.527344 30.878906 22.441406 C 30.875 22.265625 30.859375 22.109375 30.839844 21.960938 C 30.507812 22.171875 30.148438 22.304688 29.761719 22.359375 C 29.25 22.246094 29.0625 21.925781 29.199219 21.398438 C 29.703125 19.914062 30.25 18.449219 30.839844 17 C 31.078125 16.871094 31.238281 16.941406 31.320312 17.199219 C 30.746094 18.523438 30.226562 19.867188 29.761719 21.238281 C 29.65625 21.472656 29.628906 21.710938 29.679688 21.960938 C 30.226562 21.804688 30.734375 21.566406 31.199219 21.238281 C 31.675781 20.074219 32.195312 18.925781 32.761719 17.800781 C 33.074219 17.726562 33.195312 17.863281 33.121094 18.199219 C 32.675781 19.0625 32.300781 19.941406 32 20.839844 C 32.335938 20.59375 32.617188 20.632812 32.839844 20.960938 C 32.707031 21.371094 32.457031 21.675781 32.078125 21.878906 C 32.066406 21.933594 32.054688 21.988281 32.039062 22.039062 C 32.167969 22.300781 32.355469 22.515625 32.601562 22.679688 C 32.542969 22.761719 32.492188 22.839844 32.441406 22.921875 Z M 32.441406 22.921875 "/>
<use xlink:href="#surface26" mask="url(#mask7)"/>
<path style=" stroke:none;fill-rule:evenodd;fill:rgb(100%,97.647059%,96.862745%);fill-opacity:1;" d="M 36.839844 18.761719 C 37.503906 18.742188 38.144531 18.859375 38.761719 19.121094 C 38.960938 19.195312 39.042969 19.339844 39 19.558594 C 38.046875 19.253906 37.074219 19.148438 36.078125 19.238281 C 35.277344 20.769531 34.863281 22.394531 34.839844 24.121094 C 34.6875 24.136719 34.570312 24.082031 34.480469 23.960938 C 34.421875 23.398438 34.4375 22.835938 34.519531 22.28125 C 34.613281 22.148438 34.613281 22.011719 34.519531 21.878906 C 34.222656 22.109375 33.902344 22.296875 33.558594 22.441406 C 33.308594 22.484375 33.109375 22.402344 32.960938 22.199219 C 32.871094 21.722656 32.976562 21.296875 33.28125 20.921875 C 33.503906 20.800781 33.648438 20.867188 33.71875 21.121094 C 33.613281 21.359375 33.507812 21.601562 33.398438 21.839844 C 33.425781 21.878906 33.453125 21.921875 33.480469 21.960938 C 33.972656 21.773438 34.410156 21.507812 34.800781 21.160156 C 35.007812 20.507812 35.234375 19.867188 35.480469 19.238281 C 34.742188 19.257812 34.007812 19.335938 33.28125 19.480469 C 32.929688 19.429688 32.863281 19.28125 33.078125 19.039062 C 33.957031 18.902344 34.835938 18.792969 35.71875 18.71875 C 35.90625 18.375 36.09375 18.027344 36.28125 17.679688 C 36.488281 17.621094 36.625 17.703125 36.679688 17.921875 C 36.566406 18.199219 36.433594 18.464844 36.28125 18.71875 C 36.464844 18.757812 36.652344 18.773438 36.839844 18.761719 Z M 36.839844 18.761719 "/>
<path style=" stroke:none;fill-rule:evenodd;fill:rgb(100%,97.647059%,97.254902%);fill-opacity:1;" d="M 28.679688 18.039062 C 28.984375 18.097656 29.277344 18.1875 29.558594 18.320312 C 29.628906 18.429688 29.65625 18.546875 29.640625 18.679688 C 29.273438 18.574219 28.898438 18.496094 28.519531 18.441406 C 27.707031 18.335938 26.878906 18.335938 26.039062 18.441406 C 26.050781 18.488281 26.078125 18.515625 26.121094 18.519531 C 25.78125 19.394531 25.445312 20.273438 25.121094 21.160156 C 24.914062 21.894531 24.765625 22.640625 24.679688 23.398438 C 24.546875 23.417969 24.429688 23.390625 24.320312 23.320312 C 24.28125 23.082031 24.265625 22.839844 24.28125 22.601562 C 24.554688 21.183594 25.011719 19.824219 25.640625 18.519531 C 24.871094 18.5 24.097656 18.488281 23.320312 18.480469 C 23.195312 18.390625 23.144531 18.269531 23.160156 18.121094 C 25 17.992188 26.839844 17.964844 28.679688 18.039062 Z M 28.679688 18.039062 "/>
<path style=" stroke:none;fill-rule:evenodd;fill:rgb(100%,72.156863%,67.843137%);fill-opacity:1;" d="M 28.519531 18.441406 C 27.707031 18.414062 26.90625 18.441406 26.121094 18.519531 C 26.078125 18.515625 26.050781 18.488281 26.039062 18.441406 C 26.878906 18.335938 27.707031 18.335938 28.519531 18.441406 Z M 28.519531 18.441406 "/>
<path style=" stroke:none;fill-rule:evenodd;fill:rgb(99.607843%,48.235294%,45.490196%);fill-opacity:1;" d="M 14.039062 18.519531 C 14.125 18.507812 14.203125 18.519531 14.28125 18.558594 C 14.738281 18.992188 15.164062 19.445312 15.558594 19.921875 C 15.222656 20.417969 14.824219 20.871094 14.359375 21.28125 C 14.226562 21.332031 14.09375 21.332031 13.960938 21.28125 C 13.511719 20.875 13.113281 20.433594 12.761719 19.960938 C 13.15625 19.457031 13.582031 18.976562 14.039062 18.519531 Z M 14.039062 18.519531 "/>
<use xlink:href="#surface29" mask="url(#mask8)"/>
<path style=" stroke:none;fill-rule:evenodd;fill:rgb(100%,96.862745%,96.078431%);fill-opacity:1;" d="M 33.800781 19.800781 C 34.132812 19.746094 34.253906 19.878906 34.160156 20.199219 C 33.96875 20.5 33.792969 20.476562 33.640625 20.121094 C 33.695312 20.011719 33.746094 19.90625 33.800781 19.800781 Z M 33.800781 19.800781 "/>
<path style=" stroke:none;fill-rule:evenodd;fill:rgb(100%,97.647059%,97.254902%);fill-opacity:1;" d="M 26.921875 20.679688 C 27.070312 20.664062 27.191406 20.71875 27.28125 20.839844 C 27.4375 21.472656 27.289062 22.019531 26.839844 22.480469 C 26.496094 22.679688 26.21875 22.613281 26 22.28125 C 25.945312 22.066406 25.945312 21.851562 26 21.640625 C 26.242188 21.25 26.546875 20.929688 26.921875 20.679688 Z M 26.921875 20.679688 "/>
<path style=" stroke:none;fill-rule:evenodd;fill:rgb(100%,97.254902%,96.862745%);fill-opacity:1;" d="M 28.359375 20.679688 C 28.550781 20.671875 28.699219 20.75 28.800781 20.921875 C 28.910156 21.582031 28.710938 22.128906 28.199219 22.558594 C 27.589844 22.617188 27.339844 22.335938 27.441406 21.71875 C 27.679688 21.308594 27.984375 20.960938 28.359375 20.679688 Z M 28.359375 20.679688 "/>
<path style=" stroke:none;fill-rule:evenodd;fill:rgb(100%,56.078431%,47.843137%);fill-opacity:1;" d="M 26.761719 21.480469 C 26.835938 21.578125 26.824219 21.683594 26.71875 21.800781 C 26.644531 21.886719 26.578125 21.980469 26.519531 22.078125 C 26.464844 22.132812 26.414062 22.132812 26.359375 22.078125 C 26.503906 21.882812 26.636719 21.683594 26.761719 21.480469 Z M 26.761719 21.480469 "/>
<path style=" stroke:none;fill-rule:evenodd;fill:rgb(100%,57.647059%,49.019608%);fill-opacity:1;" d="M 28.28125 21.398438 C 28.300781 21.679688 28.179688 21.917969 27.921875 22.121094 C 27.976562 21.859375 28.097656 21.617188 28.28125 21.398438 Z M 28.28125 21.398438 "/>
<use xlink:href="#surface32" mask="url(#mask9)"/>
<use xlink:href="#surface35" mask="url(#mask10)"/>
<use xlink:href="#surface38" mask="url(#mask11)"/>
<path style=" stroke:none;fill-rule:evenodd;fill:rgb(99.607843%,49.019608%,43.921569%);fill-opacity:1;" d="M 14.199219 26.039062 C 11.46875 28.730469 8.75 31.4375 6.039062 34.160156 C 6.140625 34.238281 6.140625 34.304688 6.039062 34.359375 C 5.53125 33.929688 5.078125 33.449219 4.679688 32.921875 C 5.570312 31.988281 6.476562 31.070312 7.398438 30.160156 C 7.339844 30.078125 7.261719 30.035156 7.160156 30.039062 C 8.96875 29.027344 10.753906 27.976562 12.519531 26.878906 C 11.667969 26.171875 11.214844 25.28125 11.160156 24.199219 C 12.179688 24.816406 13.191406 25.429688 14.199219 26.039062 Z M 14.199219 26.039062 "/>
<path style=" stroke:none;fill-rule:evenodd;fill:rgb(99.607843%,51.372549%,38.823529%);fill-opacity:1;" d="M 34.519531 22.28125 C 34.4375 22.269531 34.355469 22.28125 34.28125 22.320312 C 34.304688 22.347656 34.332031 22.375 34.359375 22.398438 C 34.28125 22.425781 34.199219 22.453125 34.121094 22.480469 C 34.148438 22.507812 34.171875 22.535156 34.199219 22.558594 C 34.066406 22.585938 33.933594 22.613281 33.800781 22.640625 C 33.878906 22.667969 33.960938 22.695312 34.039062 22.71875 C 33.851562 22.851562 33.667969 22.988281 33.480469 23.121094 C 33.507812 23.148438 33.535156 23.171875 33.558594 23.199219 C 33.425781 23.226562 33.292969 23.253906 33.160156 23.28125 C 33.238281 23.304688 33.320312 23.332031 33.398438 23.359375 C 33.214844 23.492188 33.027344 23.625 32.839844 23.761719 C 32.867188 23.785156 32.894531 23.8125 32.921875 23.839844 C 32.785156 23.867188 32.652344 23.894531 32.519531 23.921875 C 32.601562 23.945312 32.679688 23.972656 32.761719 24 C 32.574219 24.132812 32.386719 24.265625 32.199219 24.398438 C 32.226562 24.425781 32.253906 24.453125 32.28125 24.480469 C 32.148438 24.507812 32.011719 24.535156 31.878906 24.558594 C 31.960938 24.585938 32.039062 24.613281 32.121094 24.640625 C 31.933594 24.773438 31.746094 24.90625 31.558594 25.039062 C 31.585938 25.066406 31.613281 25.09375 31.640625 25.121094 C 31.507812 25.148438 31.375 25.171875 31.238281 25.199219 C 31.320312 25.226562 31.398438 25.253906 31.480469 25.28125 C 31.292969 25.414062 31.105469 25.546875 30.921875 25.679688 C 30.945312 25.707031 30.972656 25.734375 31 25.761719 C 30.867188 25.785156 30.734375 25.8125 30.601562 25.839844 C 30.679688 25.867188 30.761719 25.894531 30.839844 25.921875 C 30.652344 26.054688 30.464844 26.1875 30.28125 26.320312 C 30.304688 26.347656 30.332031 26.375 30.359375 26.398438 C 30.226562 26.425781 30.09375 26.453125 29.960938 26.480469 C 30.039062 26.507812 30.121094 26.535156 30.199219 26.558594 C 30.011719 26.695312 29.828125 26.828125 29.640625 26.960938 C 29.667969 26.988281 29.695312 27.011719 29.71875 27.039062 C 29.585938 27.066406 29.453125 27.09375 29.320312 27.121094 C 29.398438 27.148438 29.480469 27.171875 29.558594 27.199219 C 29.375 27.332031 29.1875 27.464844 29 27.601562 C 29.027344 27.625 29.054688 27.652344 29.078125 27.679688 C 28.945312 27.707031 28.8125 27.734375 28.679688 27.761719 C 28.761719 27.785156 28.839844 27.8125 28.921875 27.839844 C 28.734375 27.972656 28.546875 28.105469 28.359375 28.238281 C 28.386719 28.265625 28.414062 28.292969 28.441406 28.320312 C 28.304688 28.347656 28.171875 28.375 28.039062 28.398438 C 28.121094 28.425781 28.199219 28.453125 28.28125 28.480469 C 28.09375 28.613281 27.90625 28.746094 27.71875 28.878906 C 27.746094 28.90625 27.773438 28.933594 27.800781 28.960938 C 27.667969 28.988281 27.535156 29.011719 27.398438 29.039062 C 27.480469 29.066406 27.558594 29.09375 27.640625 29.121094 C 27.453125 29.253906 27.265625 29.386719 27.078125 29.519531 C 27.105469 29.546875 27.132812 29.574219 27.160156 29.601562 C 27.027344 29.625 26.894531 29.652344 26.761719 29.679688 C 26.839844 29.707031 26.921875 29.734375 27 29.761719 C 26.8125 29.894531 26.625 30.027344 26.441406 30.160156 C 26.464844 30.1875 26.492188 30.214844 26.519531 30.238281 C 26.386719 30.265625 26.253906 30.292969 26.121094 30.320312 C 26.199219 30.347656 26.28125 30.375 26.359375 30.398438 C 26.171875 30.535156 25.988281 30.667969 25.800781 30.800781 C 25.828125 30.828125 25.851562 30.851562 25.878906 30.878906 C 25.746094 30.90625 25.613281 30.933594 25.480469 30.960938 C 25.558594 30.988281 25.640625 31.011719 25.71875 31.039062 C 25.535156 31.171875 25.347656 31.304688 25.160156 31.441406 C 25.1875 31.464844 25.214844 31.492188 25.238281 31.519531 C 25.105469 31.546875 24.972656 31.574219 24.839844 31.601562 C 24.921875 31.625 25 31.652344 25.078125 31.679688 C 24.894531 31.8125 24.707031 31.945312 24.519531 32.078125 C 24.546875 32.105469 24.574219 32.132812 24.601562 32.160156 C 24.464844 32.1875 24.332031 32.214844 24.199219 32.238281 C 24.28125 32.265625 24.359375 32.292969 24.441406 32.320312 C 24.253906 32.453125 24.066406 32.585938 23.878906 32.71875 C 23.90625 32.746094 23.933594 32.773438 23.960938 32.800781 C 23.828125 32.828125 23.695312 32.851562 23.558594 32.878906 C 23.640625 32.90625 23.71875 32.933594 23.800781 32.960938 C 23.613281 33.09375 23.425781 33.226562 23.238281 33.359375 C 23.265625 33.386719 23.292969 33.414062 23.320312 33.441406 C 23.1875 33.464844 23.054688 33.492188 22.921875 33.519531 C 23 33.546875 23.078125 33.574219 23.160156 33.601562 C 22.972656 33.734375 22.785156 33.867188 22.601562 34 C 22.625 34.027344 22.652344 34.054688 22.679688 34.078125 C 22.546875 34.105469 22.414062 34.132812 22.28125 34.160156 C 22.359375 34.1875 22.441406 34.214844 22.519531 34.238281 C 22.332031 34.375 22.148438 34.507812 21.960938 34.640625 C 21.988281 34.667969 22.011719 34.695312 22.039062 34.71875 C 21.90625 34.746094 21.773438 34.773438 21.640625 34.800781 C 21.71875 34.828125 21.800781 34.851562 21.878906 34.878906 C 21.695312 35.011719 21.507812 35.148438 21.320312 35.28125 C 21.347656 35.304688 21.375 35.332031 21.398438 35.359375 C 21.265625 35.386719 21.132812 35.414062 21 35.441406 C 21.078125 35.464844 21.160156 35.492188 21.238281 35.519531 C 21.054688 35.652344 20.867188 35.785156 20.679688 35.921875 C 20.707031 35.945312 20.734375 35.972656 20.761719 36 C 20.625 36.027344 20.492188 36.054688 20.359375 36.078125 C 20.441406 36.105469 20.519531 36.132812 20.601562 36.160156 C 20.414062 36.292969 20.226562 36.425781 20.039062 36.558594 C 20.066406 36.585938 20.09375 36.613281 20.121094 36.640625 C 19.988281 36.667969 19.851562 36.695312 19.71875 36.71875 C 19.800781 36.746094 19.878906 36.773438 19.960938 36.800781 C 19.773438 36.933594 19.585938 37.066406 19.398438 37.199219 C 19.425781 37.226562 19.453125 37.253906 19.480469 37.28125 C 19.347656 37.304688 19.214844 37.332031 19.078125 37.359375 C 19.160156 37.386719 19.238281 37.414062 19.320312 37.441406 C 19.132812 37.574219 18.945312 37.707031 18.761719 37.839844 C 18.785156 37.867188 18.8125 37.894531 18.839844 37.921875 C 18.707031 37.945312 18.574219 37.972656 18.441406 38 C 18.519531 38.027344 18.601562 38.054688 18.679688 38.078125 C 18.492188 38.214844 18.304688 38.347656 18.121094 38.480469 C 18.148438 38.507812 18.171875 38.535156 18.199219 38.558594 C 18.066406 38.585938 17.933594 38.613281 17.800781 38.640625 C 17.878906 38.667969 17.960938 38.695312 18.039062 38.71875 C 17.851562 38.851562 17.667969 38.988281 17.480469 39.121094 C 17.507812 39.148438 17.535156 39.171875 17.558594 39.199219 C 17.425781 39.226562 17.292969 39.253906 17.160156 39.28125 C 17.238281 39.304688 17.320312 39.332031 17.398438 39.359375 C 17.265625 39.441406 17.132812 39.519531 17 39.601562 C 17.039062 39.640625 17.078125 39.679688 17.121094 39.71875 C 17.238281 39.609375 17.304688 39.636719 17.320312 39.800781 C 16.917969 39.761719 16.519531 39.707031 16.121094 39.640625 C 16.109375 39.589844 16.085938 39.550781 16.039062 39.519531 C 21.507812 34.054688 26.972656 28.585938 32.441406 23.121094 C 32.394531 23.089844 32.367188 23.050781 32.359375 23 C 32.359375 22.945312 32.386719 22.921875 32.441406 22.921875 C 32.523438 22.933594 32.605469 22.917969 32.679688 22.878906 C 32.914062 22.601562 33.207031 22.453125 33.558594 22.441406 C 33.902344 22.296875 34.222656 22.109375 34.519531 21.878906 C 34.613281 22.011719 34.613281 22.148438 34.519531 22.28125 Z M 34.519531 22.28125 "/>
</g>
</svg>
