<svg xmlns="http://www.w3.org/2000/svg" width="13" height="13" viewBox="0 0 500 500" version="1.1"><path d="M 106.209 67.533 C 96.115 70.293, 89.806 74.029, 81.917 81.917 C 73.823 90.011, 70.152 96.343, 67.460 106.849 C 64.786 117.287, 65.696 119.467, 91.525 164.500 C 98.781 177.150, 109.093 194.925, 114.440 204 C 129.257 229.143, 131.747 236.929, 130.730 254.937 C 130.062 266.779, 126.648 276.691, 118.827 289.501 C 107.306 308.370, 74.733 364.723, 70.113 373.778 C 66.510 380.842, 65.742 386.445, 67.460 393.151 C 70.102 403.464, 73.833 409.897, 81.919 418.077 C 90.456 426.715, 98.084 431.129, 107.765 433.033 C 114.696 434.397, 120.108 433.509, 127.384 429.813 C 137.998 424.422, 218.156 377.980, 220.407 375.918 C 220.923 375.444, 219.107 373.104, 216.182 370.474 C 209.478 364.446, 201.941 353.069, 198.187 343.309 C 195.256 335.689, 193.140 326, 194.406 326 C 194.754 326, 206.168 332.597, 219.769 340.660 C 265.434 367.730, 271.418 371.255, 292.500 383.500 C 314.330 396.180, 350.815 416.592, 369.175 426.396 C 382.251 433.379, 386.813 434.163, 396.771 431.138 C 413.613 426.023, 428.150 411.041, 432.508 394.307 C 434.519 386.588, 434.365 383.502, 431.638 376.873 C 429.198 370.942, 407.462 332.483, 387.060 298 C 371.644 271.943, 369.616 266.287, 369.670 249.500 C 369.703 239.318, 370.096 236.364, 372.265 230 C 374.905 222.253, 376.058 220.082, 390.050 196.500 C 412.102 159.332, 431.223 125.041, 432.670 120.063 C 436.004 108.594, 430.588 94.321, 418.242 82.041 C 409.920 73.763, 403.663 70.106, 393.362 67.496 C 383.618 65.028, 379.962 66.231, 356 79.788 C 336.915 90.586, 281.698 122.808, 279.123 124.651 C 278.915 124.800, 281.429 127.564, 284.710 130.794 C 294.567 140.499, 300.422 150.332, 303.972 163.141 C 306.495 172.245, 306.573 174.434, 304.345 173.579 C 303.435 173.230, 296.347 169.190, 288.595 164.602 C 280.843 160.015, 263.250 149.612, 249.500 141.485 C 235.750 133.358, 217.300 122.442, 208.500 117.229 C 181.570 101.273, 177.257 98.759, 154.323 85.645 C 120.644 66.386, 116.337 64.765, 106.209 67.533 M 236.234 236.266 C 227.171 245.354, 225 248.084, 225 250.389 C 225 252.682, 227.127 255.395, 235.768 264.123 C 250.132 278.632, 249.617 278.628, 264.140 264.317 C 270.103 258.441, 275.234 252.838, 275.542 251.867 C 276.492 248.875, 273.608 244.890, 263.157 234.750 C 255.269 227.097, 252.502 225, 250.288 225 C 248.026 225, 245.244 227.230, 236.234 236.266" stroke="none" fill="#fcfbfb" fill-rule="evenodd"/><path d="M 219 1.597 C 152.720 10.379, 94.841 43.030, 53.579 94.918 C -2.873 165.906, -15.911 263.033, 19.625 347.852 C 43.236 404.208, 89.319 451.641, 145.403 477.314 C 179.080 492.731, 212.597 500, 250 500 C 287.019 500, 320.341 492.850, 353.744 477.740 C 410.278 452.166, 457.029 403.975, 480.864 346.705 C 489.757 325.336, 497.071 297.163, 498.593 278.411 C 498.970 273.755, 499.667 269.706, 500.140 269.414 C 500.613 269.121, 501 259.882, 501 248.882 C 501 237.882, 500.611 229.122, 500.136 229.416 C 499.660 229.710, 498.964 226.164, 498.588 221.537 C 496.470 195.431, 485.069 158.644, 470.844 132.014 C 436.137 67.044, 370.458 18.183, 299.500 4.546 C 275.293 -0.107, 241.265 -1.353, 219 1.597 M 106.209 67.533 C 96.115 70.293, 89.806 74.029, 81.917 81.917 C 73.823 90.011, 70.152 96.343, 67.460 106.849 C 64.786 117.287, 65.696 119.467, 91.525 164.500 C 98.781 177.150, 109.093 194.925, 114.440 204 C 129.257 229.143, 131.747 236.929, 130.730 254.937 C 130.062 266.779, 126.648 276.691, 118.827 289.501 C 107.306 308.370, 74.733 364.723, 70.113 373.778 C 66.510 380.842, 65.742 386.445, 67.460 393.151 C 70.102 403.464, 73.833 409.897, 81.919 418.077 C 90.456 426.715, 98.084 431.129, 107.765 433.033 C 114.696 434.397, 120.108 433.509, 127.384 429.813 C 137.998 424.422, 218.156 377.980, 220.407 375.918 C 220.923 375.444, 219.107 373.104, 216.182 370.474 C 209.478 364.446, 201.941 353.069, 198.187 343.309 C 195.256 335.689, 193.140 326, 194.406 326 C 194.754 326, 206.168 332.597, 219.769 340.660 C 265.434 367.730, 271.418 371.255, 292.500 383.500 C 314.330 396.180, 350.815 416.592, 369.175 426.396 C 382.251 433.379, 386.813 434.163, 396.771 431.138 C 413.613 426.023, 428.150 411.041, 432.508 394.307 C 434.519 386.588, 434.365 383.502, 431.638 376.873 C 429.198 370.942, 407.462 332.483, 387.060 298 C 371.644 271.943, 369.616 266.287, 369.670 249.500 C 369.703 239.318, 370.096 236.364, 372.265 230 C 374.905 222.253, 376.058 220.082, 390.050 196.500 C 412.102 159.332, 431.223 125.041, 432.670 120.063 C 436.004 108.594, 430.588 94.321, 418.242 82.041 C 409.920 73.763, 403.663 70.106, 393.362 67.496 C 383.618 65.028, 379.962 66.231, 356 79.788 C 336.915 90.586, 281.698 122.808, 279.123 124.651 C 278.915 124.800, 281.429 127.564, 284.710 130.794 C 294.567 140.499, 300.422 150.332, 303.972 163.141 C 306.495 172.245, 306.573 174.434, 304.345 173.579 C 303.435 173.230, 296.347 169.190, 288.595 164.602 C 280.843 160.015, 263.250 149.612, 249.500 141.485 C 235.750 133.358, 217.300 122.442, 208.500 117.229 C 181.570 101.273, 177.257 98.759, 154.323 85.645 C 120.644 66.386, 116.337 64.765, 106.209 67.533 M 236.234 236.266 C 227.171 245.354, 225 248.084, 225 250.389 C 225 252.682, 227.127 255.395, 235.768 264.123 C 250.132 278.632, 249.617 278.628, 264.140 264.317 C 270.103 258.441, 275.234 252.838, 275.542 251.867 C 276.492 248.875, 273.608 244.890, 263.157 234.750 C 255.269 227.097, 252.502 225, 250.288 225 C 248.026 225, 245.244 227.230, 236.234 236.266 M 0.422 250 C 0.422 261.275, 0.568 265.887, 0.746 260.250 C 0.924 254.613, 0.924 245.387, 0.746 239.750 C 0.568 234.113, 0.422 238.725, 0.422 250" stroke="none" fill="#fc7d70" fill-rule="evenodd"/></svg>