<?xml version="1.0" encoding="UTF-8"?>
<svg xmlns="http://www.w3.org/2000/svg" xmlns:xlink="http://www.w3.org/1999/xlink" width="14px" height="14px" viewBox="0 0 14 14" version="1.1">
<defs>
<filter id="alpha" filterUnits="objectBoundingBox" x="0%" y="0%" width="100%" height="100%">
  <feColorMatrix type="matrix" in="SourceGraphic" values="0 0 0 0 1 0 0 0 0 1 0 0 0 0 1 0 0 0 1 0"/>
</filter>
<mask id="mask0">
  <g filter="url(#alpha)">
<rect x="0" y="0" width="14" height="14" style="fill:rgb(0%,0%,0%);fill-opacity:0.992157;stroke:none;"/>
  </g>
</mask>
<clipPath id="clip1">
  <rect x="0" y="0" width="14" height="14"/>
</clipPath>
<g id="surface5" clip-path="url(#clip1)">
<path style=" stroke:none;fill-rule:evenodd;fill:rgb(99.607843%,44.705882%,49.803922%);fill-opacity:1;" d="M 6.371094 -0.015625 C 6.667969 -0.015625 6.96875 -0.015625 7.265625 -0.015625 C 6.402344 0.804688 5.546875 1.652344 4.691406 2.519531 C 4.753906 2.558594 4.753906 2.582031 4.691406 2.589844 C 4.351562 2.398438 4.003906 2.207031 3.652344 2.015625 C 3.554688 1.964844 3.453125 1.921875 3.347656 1.890625 C 3.289062 1.851562 3.222656 1.832031 3.148438 1.835938 C 3.054688 1.84375 2.960938 1.859375 2.871094 1.875 C 2.820312 1.882812 2.78125 1.90625 2.757812 1.945312 C 2.71875 1.957031 2.683594 1.964844 2.644531 1.972656 C 2.59375 1.976562 2.585938 1.964844 2.617188 1.933594 C 2.597656 1.914062 2.582031 1.894531 2.5625 1.875 C 2.886719 1.566406 3.183594 1.253906 3.457031 0.9375 C 4.355469 0.402344 5.328125 0.0859375 6.371094 -0.015625 Z M 6.371094 -0.015625 "/>
</g>
<mask id="mask1">
  <g filter="url(#alpha)">
<rect x="0" y="0" width="14" height="14" style="fill:rgb(0%,0%,0%);fill-opacity:0.996078;stroke:none;"/>
  </g>
</mask>
<clipPath id="clip2">
  <rect x="0" y="0" width="14" height="14"/>
</clipPath>
<g id="surface8" clip-path="url(#clip2)">
<path style=" stroke:none;fill-rule:evenodd;fill:rgb(99.607843%,45.882353%,47.843137%);fill-opacity:1;" d="M 7.265625 -0.015625 C 7.378906 -0.015625 7.488281 -0.015625 7.601562 -0.015625 C 7.984375 0.0390625 8.367188 0.101562 8.75 0.183594 C 8.761719 0.234375 8.789062 0.277344 8.835938 0.308594 C 7.855469 1.289062 6.875 2.269531 5.894531 3.246094 C 5.867188 3.261719 5.839844 3.265625 5.808594 3.261719 C 5.429688 3.050781 5.054688 2.824219 4.691406 2.589844 C 4.753906 2.582031 4.753906 2.558594 4.691406 2.519531 C 5.546875 1.652344 6.402344 0.804688 7.265625 -0.015625 Z M 7.265625 -0.015625 "/>
</g>
<mask id="mask2">
  <g filter="url(#alpha)">
<rect x="0" y="0" width="14" height="14" style="fill:rgb(0%,0%,0%);fill-opacity:0.996078;stroke:none;"/>
  </g>
</mask>
<clipPath id="clip3">
  <rect x="0" y="0" width="14" height="14"/>
</clipPath>
<g id="surface11" clip-path="url(#clip3)">
<path style=" stroke:none;fill-rule:evenodd;fill:rgb(99.607843%,46.666667%,46.666667%);fill-opacity:1;" d="M 8.75 0.183594 C 9.089844 0.277344 9.414062 0.398438 9.730469 0.546875 C 8.699219 1.589844 7.664062 2.632812 6.621094 3.667969 C 6.558594 3.628906 6.480469 3.605469 6.398438 3.597656 C 6.1875 3.507812 5.992188 3.394531 5.808594 3.261719 C 5.839844 3.265625 5.867188 3.261719 5.894531 3.246094 C 6.875 2.269531 7.855469 1.289062 8.835938 0.308594 C 8.789062 0.277344 8.761719 0.234375 8.75 0.183594 Z M 8.75 0.183594 "/>
</g>
<mask id="mask3">
  <g filter="url(#alpha)">
<rect x="0" y="0" width="14" height="14" style="fill:rgb(0%,0%,0%);fill-opacity:0.996078;stroke:none;"/>
  </g>
</mask>
<clipPath id="clip4">
  <rect x="0" y="0" width="14" height="14"/>
</clipPath>
<g id="surface14" clip-path="url(#clip4)">
<path style=" stroke:none;fill-rule:evenodd;fill:rgb(99.607843%,47.843137%,45.882353%);fill-opacity:1;" d="M 9.730469 0.546875 C 10.390625 0.8125 10.988281 1.175781 11.523438 1.636719 C 11.453125 1.691406 11.378906 1.761719 11.296875 1.847656 C 11.289062 1.902344 11.308594 1.953125 11.355469 2.003906 C 11.183594 1.921875 11.007812 1.867188 10.820312 1.835938 C 10.707031 1.847656 10.597656 1.871094 10.484375 1.902344 C 9.570312 2.402344 8.675781 2.929688 7.796875 3.484375 C 7.9375 3.601562 8.0625 3.734375 8.175781 3.878906 C 8.351562 4.125 8.472656 4.394531 8.539062 4.691406 C 8.5625 4.75 8.558594 4.804688 8.527344 4.859375 C 7.804688 4.453125 7.097656 4.03125 6.398438 3.597656 C 6.480469 3.605469 6.558594 3.628906 6.621094 3.667969 C 7.664062 2.632812 8.699219 1.589844 9.730469 0.546875 Z M 9.730469 0.546875 "/>
</g>
<mask id="mask4">
  <g filter="url(#alpha)">
<rect x="0" y="0" width="14" height="14" style="fill:rgb(0%,0%,0%);fill-opacity:0.988235;stroke:none;"/>
  </g>
</mask>
<clipPath id="clip5">
  <rect x="0" y="0" width="14" height="14"/>
</clipPath>
<g id="surface17" clip-path="url(#clip5)">
<path style=" stroke:none;fill-rule:evenodd;fill:rgb(99.607843%,50.196078%,43.137255%);fill-opacity:1;" d="M 11.523438 1.636719 C 12.128906 2.136719 12.625 2.722656 13.007812 3.402344 C 12.957031 3.425781 12.914062 3.40625 12.878906 3.347656 C 12.34375 3.894531 11.800781 4.425781 11.242188 4.941406 C 11.5 4.464844 11.765625 3.988281 12.039062 3.515625 C 12.15625 3.277344 12.167969 3.035156 12.066406 2.785156 C 12.003906 2.6875 11.949219 2.585938 11.898438 2.476562 C 11.738281 2.292969 11.558594 2.136719 11.355469 2.003906 C 11.308594 1.953125 11.289062 1.902344 11.296875 1.847656 C 11.378906 1.761719 11.453125 1.691406 11.523438 1.636719 Z M 11.523438 1.636719 "/>
</g>
<mask id="mask5">
  <g filter="url(#alpha)">
<rect x="0" y="0" width="14" height="14" style="fill:rgb(0%,0%,0%);fill-opacity:0.992157;stroke:none;"/>
  </g>
</mask>
<clipPath id="clip6">
  <rect x="0" y="0" width="14" height="14"/>
</clipPath>
<g id="surface20" clip-path="url(#clip6)">
<path style=" stroke:none;fill-rule:evenodd;fill:rgb(99.607843%,44.705882%,49.803922%);fill-opacity:1;" d="M 1.972656 2.644531 C 1.972656 2.664062 1.972656 2.683594 1.972656 2.703125 C 1.945312 2.699219 1.925781 2.714844 1.917969 2.742188 C 1.828125 2.945312 1.820312 3.148438 1.890625 3.347656 C 1.925781 3.472656 1.980469 3.59375 2.042969 3.710938 C 2.222656 4.015625 2.398438 4.324219 2.5625 4.632812 C 1.734375 5.476562 0.890625 6.324219 0.0273438 7.183594 C 0.015625 7.167969 0.00390625 7.15625 -0.015625 7.152344 C -0.015625 6.894531 -0.015625 6.632812 -0.015625 6.371094 C 0.0859375 5.328125 0.402344 4.355469 0.9375 3.457031 C 1.253906 3.183594 1.566406 2.886719 1.875 2.5625 C 1.898438 2.609375 1.929688 2.617188 1.960938 2.589844 C 1.972656 2.605469 1.976562 2.625 1.972656 2.644531 Z M 1.972656 2.644531 "/>
</g>
<mask id="mask6">
  <g filter="url(#alpha)">
<rect x="0" y="0" width="14" height="14" style="fill:rgb(0%,0%,0%);fill-opacity:0.980392;stroke:none;"/>
  </g>
</mask>
<clipPath id="clip7">
  <rect x="0" y="0" width="14" height="14"/>
</clipPath>
<g id="surface23" clip-path="url(#clip7)">
<path style=" stroke:none;fill-rule:evenodd;fill:rgb(99.607843%,44.313725%,51.372549%);fill-opacity:1;" d="M 3.457031 0.9375 C 3.183594 1.253906 2.886719 1.566406 2.5625 1.875 C 2.582031 1.894531 2.597656 1.914062 2.617188 1.933594 C 2.585938 1.964844 2.59375 1.976562 2.644531 1.972656 C 2.375 2.152344 2.152344 2.375 1.972656 2.644531 C 1.976562 2.625 1.972656 2.605469 1.960938 2.589844 C 1.929688 2.617188 1.898438 2.609375 1.875 2.5625 C 1.566406 2.886719 1.253906 3.183594 0.9375 3.457031 C 1.542969 2.382812 2.382812 1.542969 3.457031 0.9375 Z M 3.457031 0.9375 "/>
</g>
<mask id="mask7">
  <g filter="url(#alpha)">
<rect x="0" y="0" width="14" height="14" style="fill:rgb(0%,0%,0%);fill-opacity:0.996078;stroke:none;"/>
  </g>
</mask>
<clipPath id="clip8">
  <rect x="0" y="0" width="14" height="14"/>
</clipPath>
<g id="surface26" clip-path="url(#clip8)">
<path style=" stroke:none;fill-rule:evenodd;fill:rgb(99.607843%,50.588235%,40.392157%);fill-opacity:1;" d="M 13.007812 3.402344 C 13.402344 4.03125 13.671875 4.710938 13.816406 5.445312 C 13.785156 5.515625 13.785156 5.574219 13.816406 5.628906 C 12.875 6.570312 11.933594 7.511719 10.988281 8.457031 C 10.953125 8.453125 10.914062 8.4375 10.878906 8.414062 C 10.75 8.175781 10.613281 7.945312 10.472656 7.714844 C 10.445312 7.597656 10.410156 7.488281 10.375 7.378906 C 10.320312 7.007812 10.347656 6.644531 10.457031 6.285156 C 10.472656 6.21875 10.496094 6.152344 10.527344 6.089844 C 10.585938 6 10.652344 5.914062 10.722656 5.839844 C 10.859375 5.515625 11.035156 5.21875 11.242188 4.941406 C 11.800781 4.425781 12.34375 3.894531 12.878906 3.347656 C 12.914062 3.40625 12.957031 3.425781 13.007812 3.402344 Z M 13.007812 3.402344 "/>
</g>
<mask id="mask8">
  <g filter="url(#alpha)">
<rect x="0" y="0" width="14" height="14" style="fill:rgb(0%,0%,0%);fill-opacity:0.996078;stroke:none;"/>
  </g>
</mask>
<clipPath id="clip9">
  <rect x="0" y="0" width="14" height="14"/>
</clipPath>
<g id="surface29" clip-path="url(#clip9)">
<path style=" stroke:none;fill-rule:evenodd;fill:rgb(99.607843%,45.882353%,47.843137%);fill-opacity:1;" d="M 2.5625 4.632812 C 2.792969 5.011719 3.015625 5.394531 3.234375 5.78125 C 3.261719 5.832031 3.261719 5.878906 3.234375 5.921875 C 2.265625 6.878906 1.296875 7.839844 0.335938 8.804688 C 0.316406 8.789062 0.296875 8.769531 0.28125 8.75 C 0.261719 8.769531 0.238281 8.78125 0.210938 8.777344 C 0.105469 8.390625 0.03125 7.996094 -0.015625 7.601562 C -0.015625 7.453125 -0.015625 7.304688 -0.015625 7.152344 C 0.00390625 7.15625 0.015625 7.167969 0.0273438 7.183594 C 0.890625 6.324219 1.734375 5.476562 2.5625 4.632812 Z M 2.5625 4.632812 "/>
</g>
<mask id="mask9">
  <g filter="url(#alpha)">
<rect x="0" y="0" width="14" height="14" style="fill:rgb(0%,0%,0%);fill-opacity:0.996078;stroke:none;"/>
  </g>
</mask>
<clipPath id="clip10">
  <rect x="0" y="0" width="14" height="14"/>
</clipPath>
<g id="surface32" clip-path="url(#clip10)">
<path style=" stroke:none;fill-rule:evenodd;fill:rgb(99.607843%,52.156863%,38.039216%);fill-opacity:1;" d="M 13.816406 5.445312 C 13.894531 5.75 13.949219 6.058594 13.984375 6.371094 C 13.984375 6.78125 13.984375 7.191406 13.984375 7.601562 C 13.929688 8.082031 13.835938 8.558594 13.707031 9.03125 C 13.6875 9.027344 13.675781 9.015625 13.664062 9.003906 C 13.15625 9.511719 12.648438 10.019531 12.136719 10.527344 C 12.152344 10.5625 12.152344 10.605469 12.136719 10.652344 C 12.097656 10.574219 12.066406 10.492188 12.039062 10.402344 C 11.660156 9.734375 11.269531 9.074219 10.878906 8.414062 C 10.914062 8.4375 10.953125 8.453125 10.988281 8.457031 C 11.933594 7.511719 12.875 6.570312 13.816406 5.628906 C 13.785156 5.574219 13.785156 5.515625 13.816406 5.445312 Z M 13.816406 5.445312 "/>
</g>
<mask id="mask10">
  <g filter="url(#alpha)">
<rect x="0" y="0" width="14" height="14" style="fill:rgb(0%,0%,0%);fill-opacity:0.996078;stroke:none;"/>
  </g>
</mask>
<clipPath id="clip11">
  <rect x="0" y="0" width="14" height="14"/>
</clipPath>
<g id="surface35" clip-path="url(#clip11)">
<path style=" stroke:none;fill-rule:evenodd;fill:rgb(99.607843%,46.666667%,46.666667%);fill-opacity:1;" d="M 3.234375 5.78125 C 3.285156 5.878906 3.347656 5.96875 3.414062 6.0625 C 3.625 6.410156 3.695312 6.785156 3.625 7.183594 C 3.609375 7.023438 3.59375 6.867188 3.585938 6.707031 C 2.582031 7.710938 1.578125 8.710938 0.574219 9.714844 C 0.582031 9.757812 0.582031 9.800781 0.574219 9.84375 C 0.417969 9.5 0.296875 9.144531 0.210938 8.777344 C 0.238281 8.78125 0.261719 8.769531 0.28125 8.75 C 0.296875 8.769531 0.316406 8.789062 0.335938 8.804688 C 1.296875 7.839844 2.265625 6.878906 3.234375 5.921875 C 3.261719 5.878906 3.261719 5.832031 3.234375 5.78125 Z M 3.234375 5.78125 "/>
</g>
<mask id="mask11">
  <g filter="url(#alpha)">
<rect x="0" y="0" width="14" height="14" style="fill:rgb(0%,0%,0%);fill-opacity:0.996078;stroke:none;"/>
  </g>
</mask>
<clipPath id="clip12">
  <rect x="0" y="0" width="14" height="14"/>
</clipPath>
<g id="surface38" clip-path="url(#clip12)">
<path style=" stroke:none;fill-rule:evenodd;fill:rgb(99.607843%,47.45098%,45.490196%);fill-opacity:1;" d="M 3.625 7.183594 C 3.628906 7.296875 3.617188 7.410156 3.585938 7.519531 C 3.535156 7.605469 3.5 7.699219 3.472656 7.796875 C 2.917969 8.710938 2.386719 9.632812 1.875 10.570312 C 1.828125 10.71875 1.824219 10.867188 1.863281 11.019531 C 1.878906 11.101562 1.882812 11.1875 1.875 11.269531 C 1.789062 11.351562 1.710938 11.433594 1.636719 11.523438 C 1.207031 11.015625 0.851562 10.453125 0.574219 9.84375 C 0.582031 9.800781 0.582031 9.757812 0.574219 9.714844 C 1.578125 8.710938 2.582031 7.710938 3.585938 6.707031 C 3.59375 6.867188 3.609375 7.023438 3.625 7.183594 Z M 3.625 7.183594 "/>
</g>
<mask id="mask12">
  <g filter="url(#alpha)">
<rect x="0" y="0" width="14" height="14" style="fill:rgb(0%,0%,0%);fill-opacity:0.976471;stroke:none;"/>
  </g>
</mask>
<clipPath id="clip13">
  <rect x="0" y="0" width="14" height="14"/>
</clipPath>
<g id="surface41" clip-path="url(#clip13)">
<path style=" stroke:none;fill-rule:evenodd;fill:rgb(99.607843%,53.333333%,36.470588%);fill-opacity:1;" d="M 13.707031 9.03125 C 12.917969 11.375 11.351562 12.933594 9.003906 13.707031 C 9.5 13.167969 10.011719 12.640625 10.542969 12.125 C 10.507812 12.09375 10.515625 12.078125 10.570312 12.082031 C 10.707031 12.109375 10.847656 12.113281 10.988281 12.097656 C 11.109375 12.042969 11.230469 11.996094 11.355469 11.957031 C 11.855469 11.664062 12.117188 11.230469 12.136719 10.652344 C 12.152344 10.605469 12.152344 10.5625 12.136719 10.527344 C 12.648438 10.019531 13.15625 9.511719 13.664062 9.003906 C 13.675781 9.015625 13.6875 9.027344 13.707031 9.03125 Z M 13.707031 9.03125 "/>
</g>
<mask id="mask13">
  <g filter="url(#alpha)">
<rect x="0" y="0" width="14" height="14" style="fill:rgb(0%,0%,0%);fill-opacity:0.996078;stroke:none;"/>
  </g>
</mask>
<clipPath id="clip14">
  <rect x="0" y="0" width="14" height="14"/>
</clipPath>
<g id="surface44" clip-path="url(#clip14)">
<path style=" stroke:none;fill-rule:evenodd;fill:rgb(99.607843%,50.588235%,40.392157%);fill-opacity:1;" d="M 6.59375 9.8125 C 7.214844 10.148438 7.820312 10.5 8.414062 10.878906 C 8.4375 10.914062 8.453125 10.953125 8.457031 10.988281 C 7.507812 11.9375 6.5625 12.882812 5.613281 13.832031 C 5.628906 13.84375 5.640625 13.855469 5.640625 13.875 C 4.820312 13.710938 4.054688 13.414062 3.347656 12.976562 C 3.347656 12.949219 3.339844 12.925781 3.316406 12.90625 C 3.945312 12.265625 4.558594 11.664062 5.164062 11.101562 C 5.5 10.898438 5.835938 10.691406 6.175781 10.484375 C 6.117188 10.449219 6.070312 10.402344 6.035156 10.347656 C 6.007812 10.300781 5.996094 10.257812 6.007812 10.21875 C 6.152344 10.074219 6.296875 9.929688 6.441406 9.785156 C 6.484375 9.789062 6.535156 9.800781 6.59375 9.8125 Z M 6.59375 9.8125 "/>
</g>
<mask id="mask14">
  <g filter="url(#alpha)">
<rect x="0" y="0" width="14" height="14" style="fill:rgb(0%,0%,0%);fill-opacity:0.996078;stroke:none;"/>
  </g>
</mask>
<clipPath id="clip15">
  <rect x="0" y="0" width="14" height="14"/>
</clipPath>
<g id="surface47" clip-path="url(#clip15)">
<path style=" stroke:none;fill-rule:evenodd;fill:rgb(99.607843%,52.156863%,38.039216%);fill-opacity:1;" d="M 8.414062 10.878906 C 9.136719 11.277344 9.855469 11.675781 10.570312 12.082031 C 10.515625 12.078125 10.507812 12.09375 10.542969 12.125 C 10.011719 12.640625 9.5 13.167969 9.003906 13.707031 C 8.539062 13.84375 8.074219 13.933594 7.601562 13.984375 C 7.191406 13.984375 6.78125 13.984375 6.371094 13.984375 C 6.132812 13.945312 5.890625 13.910156 5.640625 13.875 C 5.640625 13.855469 5.628906 13.84375 5.613281 13.832031 C 6.5625 12.882812 7.507812 11.9375 8.457031 10.988281 C 8.453125 10.953125 8.4375 10.914062 8.414062 10.878906 Z M 8.414062 10.878906 "/>
</g>
<mask id="mask15">
  <g filter="url(#alpha)">
<rect x="0" y="0" width="14" height="14" style="fill:rgb(0%,0%,0%);fill-opacity:0.988235;stroke:none;"/>
  </g>
</mask>
<clipPath id="clip16">
  <rect x="0" y="0" width="14" height="14"/>
</clipPath>
<g id="surface50" clip-path="url(#clip16)">
<path style=" stroke:none;fill-rule:evenodd;fill:rgb(99.607843%,50.196078%,43.137255%);fill-opacity:1;" d="M 1.863281 11.019531 C 2.019531 11.476562 2.3125 11.824219 2.742188 12.054688 C 2.964844 12.148438 3.1875 12.160156 3.414062 12.082031 C 4.003906 11.757812 4.585938 11.429688 5.164062 11.101562 C 4.558594 11.664062 3.945312 12.265625 3.316406 12.90625 C 3.339844 12.925781 3.347656 12.949219 3.347656 12.976562 C 2.691406 12.59375 2.121094 12.109375 1.636719 11.523438 C 1.710938 11.433594 1.789062 11.351562 1.875 11.269531 C 1.882812 11.1875 1.878906 11.101562 1.863281 11.019531 Z M 1.863281 11.019531 "/>
</g>
</defs>
<g id="surface1">
<use xlink:href="#surface5" mask="url(#mask0)"/>
<use xlink:href="#surface8" mask="url(#mask1)"/>
<use xlink:href="#surface11" mask="url(#mask2)"/>
<use xlink:href="#surface14" mask="url(#mask3)"/>
<path style=" stroke:none;fill-rule:evenodd;fill:rgb(100%,81.176471%,83.137255%);fill-opacity:1;" d="M 3.347656 1.890625 C 3.144531 1.878906 2.949219 1.894531 2.757812 1.945312 C 2.78125 1.90625 2.820312 1.882812 2.871094 1.875 C 2.960938 1.859375 3.054688 1.84375 3.148438 1.835938 C 3.222656 1.832031 3.289062 1.851562 3.347656 1.890625 Z M 3.347656 1.890625 "/>
<path style=" stroke:none;fill-rule:evenodd;fill:rgb(100%,99.607843%,99.607843%);fill-opacity:1;" d="M 11.355469 2.003906 C 11.558594 2.136719 11.738281 2.292969 11.898438 2.476562 C 11.949219 2.585938 12.003906 2.6875 12.066406 2.785156 C 12.167969 3.035156 12.15625 3.277344 12.039062 3.515625 C 11.765625 3.988281 11.5 4.464844 11.242188 4.941406 C 11.035156 5.21875 10.859375 5.515625 10.722656 5.839844 C 10.652344 5.914062 10.585938 6 10.527344 6.089844 C 10.496094 6.152344 10.472656 6.21875 10.457031 6.285156 C 10.441406 6.289062 10.425781 6.296875 10.414062 6.3125 C 10.304688 6.667969 10.292969 7.023438 10.375 7.378906 C 10.410156 7.488281 10.445312 7.597656 10.472656 7.714844 C 10.613281 7.945312 10.75 8.175781 10.878906 8.414062 C 11.269531 9.074219 11.660156 9.734375 12.039062 10.402344 C 12.066406 10.492188 12.097656 10.574219 12.136719 10.652344 C 12.117188 11.230469 11.855469 11.664062 11.355469 11.957031 C 11.230469 11.996094 11.109375 12.042969 10.988281 12.097656 C 10.847656 12.113281 10.707031 12.109375 10.570312 12.082031 C 9.855469 11.675781 9.136719 11.277344 8.414062 10.878906 C 7.820312 10.5 7.214844 10.148438 6.59375 9.8125 C 6.207031 9.589844 5.824219 9.355469 5.445312 9.113281 C 5.476562 9.601562 5.671875 10.011719 6.035156 10.347656 C 6.070312 10.402344 6.117188 10.449219 6.175781 10.484375 C 5.835938 10.691406 5.5 10.898438 5.164062 11.101562 C 4.585938 11.429688 4.003906 11.757812 3.414062 12.082031 C 3.1875 12.160156 2.964844 12.148438 2.742188 12.054688 C 2.3125 11.824219 2.019531 11.476562 1.863281 11.019531 C 1.824219 10.867188 1.828125 10.71875 1.875 10.570312 C 2.386719 9.632812 2.917969 8.710938 3.472656 7.796875 C 3.5 7.699219 3.535156 7.605469 3.585938 7.519531 C 3.617188 7.410156 3.628906 7.296875 3.625 7.183594 C 3.695312 6.785156 3.625 6.410156 3.414062 6.0625 C 3.347656 5.96875 3.285156 5.878906 3.234375 5.78125 C 3.015625 5.394531 2.792969 5.011719 2.5625 4.632812 C 2.398438 4.324219 2.222656 4.015625 2.042969 3.710938 C 1.980469 3.59375 1.925781 3.472656 1.890625 3.347656 C 1.871094 3.121094 1.898438 2.910156 1.972656 2.703125 C 1.972656 2.683594 1.972656 2.664062 1.972656 2.644531 C 2.152344 2.375 2.375 2.152344 2.644531 1.972656 C 2.683594 1.964844 2.71875 1.957031 2.757812 1.945312 C 2.949219 1.894531 3.144531 1.878906 3.347656 1.890625 C 3.453125 1.921875 3.554688 1.964844 3.652344 2.015625 C 4.003906 2.207031 4.351562 2.398438 4.691406 2.589844 C 5.054688 2.824219 5.429688 3.050781 5.808594 3.261719 C 5.992188 3.394531 6.1875 3.507812 6.398438 3.597656 C 7.097656 4.03125 7.804688 4.453125 8.527344 4.859375 C 8.558594 4.804688 8.5625 4.75 8.539062 4.691406 C 8.472656 4.394531 8.351562 4.125 8.175781 3.878906 C 8.0625 3.734375 7.9375 3.601562 7.796875 3.484375 C 8.675781 2.929688 9.570312 2.402344 10.484375 1.902344 C 10.597656 1.871094 10.707031 1.847656 10.820312 1.835938 C 11.007812 1.867188 11.183594 1.921875 11.355469 2.003906 Z M 11.355469 2.003906 "/>
<use xlink:href="#surface17" mask="url(#mask4)"/>
<use xlink:href="#surface20" mask="url(#mask5)"/>
<use xlink:href="#surface23" mask="url(#mask6)"/>
<path style=" stroke:none;fill-rule:evenodd;fill:rgb(100%,80%,81.960784%);fill-opacity:1;" d="M 1.972656 2.703125 C 1.898438 2.910156 1.871094 3.121094 1.890625 3.347656 C 1.820312 3.148438 1.828125 2.945312 1.917969 2.742188 C 1.925781 2.714844 1.945312 2.699219 1.972656 2.703125 Z M 1.972656 2.703125 "/>
<use xlink:href="#surface26" mask="url(#mask7)"/>
<use xlink:href="#surface29" mask="url(#mask8)"/>
<use xlink:href="#surface32" mask="url(#mask9)"/>
<use xlink:href="#surface35" mask="url(#mask10)"/>
<path style=" stroke:none;fill-rule:evenodd;fill:rgb(99.607843%,49.803922%,44.313725%);fill-opacity:1;" d="M 6.929688 6.257812 C 6.96875 6.253906 7.003906 6.257812 7.042969 6.273438 C 7.136719 6.375 7.238281 6.46875 7.351562 6.550781 C 7.4375 6.679688 7.546875 6.785156 7.671875 6.875 C 7.695312 6.910156 7.707031 6.945312 7.714844 6.984375 C 7.554688 7.214844 7.367188 7.425781 7.152344 7.617188 C 7.101562 7.65625 7.046875 7.6875 6.984375 7.714844 C 6.945312 7.707031 6.910156 7.695312 6.875 7.671875 C 6.644531 7.464844 6.441406 7.234375 6.257812 6.984375 C 6.296875 6.902344 6.347656 6.828125 6.410156 6.761719 C 6.601562 6.605469 6.773438 6.4375 6.929688 6.257812 Z M 6.929688 6.257812 "/>
<use xlink:href="#surface38" mask="url(#mask11)"/>
<path style=" stroke:none;fill-rule:evenodd;fill:rgb(100%,70.196078%,64.313725%);fill-opacity:1;" d="M 10.457031 6.285156 C 10.347656 6.644531 10.320312 7.007812 10.375 7.378906 C 10.292969 7.023438 10.304688 6.667969 10.414062 6.3125 C 10.425781 6.296875 10.441406 6.289062 10.457031 6.285156 Z M 10.457031 6.285156 "/>
<path style=" stroke:none;fill-rule:evenodd;fill:rgb(99.607843%,50.588235%,43.137255%);fill-opacity:1;" d="M 6.59375 9.8125 C 6.535156 9.800781 6.484375 9.789062 6.441406 9.785156 C 6.296875 9.929688 6.152344 10.074219 6.007812 10.21875 C 5.996094 10.257812 6.007812 10.300781 6.035156 10.347656 C 5.671875 10.011719 5.476562 9.601562 5.445312 9.113281 C 5.824219 9.355469 6.207031 9.589844 6.59375 9.8125 Z M 6.59375 9.8125 "/>
<use xlink:href="#surface41" mask="url(#mask12)"/>
<use xlink:href="#surface44" mask="url(#mask13)"/>
<use xlink:href="#surface47" mask="url(#mask14)"/>
<use xlink:href="#surface50" mask="url(#mask15)"/>
</g>
</svg>
